<svg width="29" height="33" viewBox="0 0 29 33" fill="none" xmlns="http://www.w3.org/2000/svg">
<path fill-rule="evenodd" clip-rule="evenodd" d="M14.8241 1.08601C14.4453 1.00811 14.0547 1.00811 13.6759 1.08601C13.238 1.17607 12.8467 1.39526 12.5356 1.56952L12.4508 1.6169L1.90615 7.47502C1.877 7.49121 1.84696 7.50776 1.81618 7.52471C1.48683 7.70612 1.07271 7.93421 0.754702 8.2793C0.479756 8.57765 0.271685 8.93128 0.144402 9.31651C-0.00281989 9.7621 -0.00109744 10.2349 0.000272368 10.6109C0.000400417 10.646 0.000525316 10.6803 0.000525316 10.7137V22.2801C0.000525316 22.3135 0.000400417 22.3477 0.000272368 22.3829C-0.00109744 22.7589 -0.00281989 23.2317 0.144402 23.6772C0.271685 24.0625 0.479758 24.4161 0.754702 24.7145C1.07272 25.0595 1.48683 25.2876 1.81618 25.469C1.84696 25.486 1.877 25.5025 1.90615 25.5187L12.4508 31.3769L12.5356 31.4242C12.8467 31.5985 13.238 31.8177 13.6759 31.9077C14.0547 31.9856 14.4453 31.9856 14.8241 31.9077C15.262 31.8177 15.6533 31.5985 15.9644 31.4242L16.0492 31.3769L26.5939 25.5187C26.6067 25.5116 26.6198 25.5043 26.633 25.497C26.6497 25.4878 26.6666 25.4785 26.6838 25.469C27.0132 25.2876 27.4273 25.0595 27.7453 24.7145C28.0202 24.4161 28.2283 24.0625 28.3556 23.6772C28.5028 23.2317 28.5011 22.7589 28.4997 22.3829C28.4996 22.3477 28.4995 22.3134 28.4995 22.2801V10.7136C28.4995 10.6803 28.4996 10.646 28.4997 10.6109C28.5011 10.2349 28.5028 9.7621 28.3556 9.31651C28.2283 8.93128 28.0202 8.57765 27.7453 8.2793C27.4273 7.9342 27.0132 7.70611 26.6838 7.5247L26.6827 7.52407C26.6523 7.50734 26.6226 7.49101 26.5939 7.47502L16.0492 1.6169L15.9644 1.56952C15.6533 1.39526 15.262 1.17607 14.8241 1.08601ZM13.8348 4.10816C14.0507 3.98819 14.161 3.92757 14.2432 3.88791L14.25 3.88465L14.2568 3.88791C14.339 3.92757 14.4493 3.98819 14.6652 4.10815L24.1403 9.3721L14.25 14.8668L4.35964 9.37213L13.8348 4.10816ZM2.85042 11.7938L12.825 17.3353L12.825 28.3246L3.29018 23.0275C3.06226 22.9009 2.94589 22.8355 2.86424 22.7835L2.85735 22.7791L2.85683 22.7709C2.85101 22.6743 2.85042 22.5408 2.85042 22.2801V11.7938Z" fill="white"/>
</svg>
