<svg width="211" height="408" viewBox="0 0 211 408" fill="none" xmlns="http://www.w3.org/2000/svg">
<g filter="url(#filter0_d_2062_401)">
<g filter="url(#filter1_d_2062_401)">
<mask id="path-1-inside-1_2062_401" fill="white">
<path fill-rule="evenodd" clip-rule="evenodd" d="M6.03 35C6.03 16.7746 20.8046 2 39.03 2H172.26C190.485 2 205.26 16.7746 205.26 35V95.3034C206.321 96.1537 207 97.4604 207 98.9257V135.074C207 136.54 206.321 137.846 205.26 138.697V369C205.26 387.225 190.485 402 172.26 402H39.03C20.8046 402 6.03 387.225 6.03 369V148.625C4.80459 147.79 4 146.383 4 144.789V125.211C4 123.617 4.80459 122.21 6.03 121.375V112.625C4.80459 111.79 4 110.383 4 108.789V89.2114C4 87.6166 4.80459 86.2097 6.03 85.3745V69.7683C4.80459 68.9331 4 67.5262 4 65.9314V60.3543C4 58.7595 4.80459 57.3526 6.03 56.5174V35Z"/>
</mask>
<path fill-rule="evenodd" clip-rule="evenodd" d="M6.03 35C6.03 16.7746 20.8046 2 39.03 2H172.26C190.485 2 205.26 16.7746 205.26 35V95.3034C206.321 96.1537 207 97.4604 207 98.9257V135.074C207 136.54 206.321 137.846 205.26 138.697V369C205.26 387.225 190.485 402 172.26 402H39.03C20.8046 402 6.03 387.225 6.03 369V148.625C4.80459 147.79 4 146.383 4 144.789V125.211C4 123.617 4.80459 122.21 6.03 121.375V112.625C4.80459 111.79 4 110.383 4 108.789V89.2114C4 87.6166 4.80459 86.2097 6.03 85.3745V69.7683C4.80459 68.9331 4 67.5262 4 65.9314V60.3543C4 58.7595 4.80459 57.3526 6.03 56.5174V35Z" fill="#1278F1"/>
<path d="M205.26 95.3034H204.26V95.7834L204.635 96.0836L205.26 95.3034ZM205.26 138.697L204.635 137.916L204.26 138.217V138.697H205.26ZM6.03 148.625H7.03V148.097L6.59319 147.799L6.03 148.625ZM6.03 121.375L6.59319 122.201L7.03 121.903V121.375H6.03ZM6.03 112.625H7.03V112.097L6.59319 111.799L6.03 112.625ZM6.03 85.3745L6.59319 86.2009L7.03 85.9032V85.3745H6.03ZM6.03 69.7683H7.03V69.2397L6.59319 68.942L6.03 69.7683ZM6.03 56.5174L6.59319 57.3437L7.03 57.046V56.5174H6.03ZM39.03 2V1C20.2523 1 5.03 16.2223 5.03 35H6.03H7.03C7.03 17.3269 21.3569 3 39.03 3V2ZM172.26 2V1H39.03V2V3H172.26V2ZM205.26 35H206.26C206.26 16.2223 191.038 1 172.26 1V2V3C189.933 3 204.26 17.3269 204.26 35H205.26ZM205.26 95.3034H206.26V35H205.26H204.26V95.3034H205.26ZM205.26 95.3034L204.635 96.0836C205.469 96.7524 206 97.7766 206 98.9257H207H208C208 97.1441 207.173 95.5551 205.885 94.5231L205.26 95.3034ZM207 98.9257H206V135.074H207H208V98.9257H207ZM207 135.074H206C206 136.223 205.469 137.248 204.635 137.916L205.26 138.697L205.885 139.477C207.173 138.445 208 136.856 208 135.074H207ZM205.26 369H206.26V138.697H205.26H204.26V369H205.26ZM172.26 402V403C191.038 403 206.26 387.778 206.26 369H205.26H204.26C204.26 386.673 189.933 401 172.26 401V402ZM39.03 402V403H172.26V402V401H39.03V402ZM6.03 369H5.03C5.03 387.778 20.2523 403 39.03 403V402V401C21.3569 401 7.03 386.673 7.03 369H6.03ZM6.03 148.625H5.03V369H6.03H7.03V148.625H6.03ZM4 144.789H3C3 146.728 3.9798 148.438 5.46681 149.452L6.03 148.625L6.59319 147.799C5.62939 147.142 5 146.039 5 144.789H4ZM4 125.211H3V144.789H4H5V125.211H4ZM6.03 121.375L5.46681 120.548C3.9798 121.562 3 123.272 3 125.211H4H5C5 123.961 5.62939 122.858 6.59319 122.201L6.03 121.375ZM6.03 112.625H5.03V121.375H6.03H7.03V112.625H6.03ZM4 108.789H3C3 110.728 3.9798 112.438 5.46681 113.452L6.03 112.625L6.59319 111.799C5.62939 111.142 5 110.039 5 108.789H4ZM4 89.2114H3V108.789H4H5V89.2114H4ZM6.03 85.3745L5.46681 84.5482C3.9798 85.5617 3 87.272 3 89.2114H4H5C5 87.9612 5.62939 86.8578 6.59319 86.2009L6.03 85.3745ZM6.03 69.7683H5.03V85.3745H6.03H7.03V69.7683H6.03ZM4 65.9314H3C3 67.8709 3.9798 69.5812 5.46681 70.5946L6.03 69.7683L6.59319 68.942C5.62939 68.2851 5 67.1816 5 65.9314H4ZM4 60.3543H3V65.9314H4H5V60.3543H4ZM6.03 56.5174L5.46681 55.6911C3.97979 56.7046 3 58.4149 3 60.3543H4H5C5 59.1041 5.62939 58.0006 6.59319 57.3437L6.03 56.5174ZM6.03 35H5.03V56.5174H6.03H7.03V35H6.03Z" fill="#F2F4F6" mask="url(#path-1-inside-1_2062_401)"/>
</g>
<path fill-rule="evenodd" clip-rule="evenodd" d="M127.07 14.0688C125.645 14.0688 124.49 15.2299 124.49 16.6551C124.49 18.0802 125.645 19.2413 127.07 19.2413C128.496 19.2413 129.651 18.0802 129.651 16.6551C129.651 15.2299 128.496 14.0688 127.07 14.0688ZM93.0304 15.362C92.3162 15.362 91.7373 15.9409 91.7373 16.6551C91.7373 17.3692 92.3162 17.9482 93.0304 17.9482H117.242C117.956 17.9482 118.535 17.3692 118.535 16.6551C118.535 15.9409 117.956 15.362 117.242 15.362H93.0304Z" fill="#E6E6E6"/>
</g>
<g filter="url(#filter2_d_2062_401)">
<g filter="url(#filter3_d_2062_401)">
<mask id="path-4-inside-2_2062_401" fill="white">
<path fill-rule="evenodd" clip-rule="evenodd" d="M57.3305 13.2068H38.6229C27.5772 13.2068 18.6229 22.1611 18.6229 33.2068V370.793C18.6229 381.839 27.5772 390.793 38.6229 390.793H172.377C183.423 390.793 192.377 381.839 192.377 370.793V33.2068C192.377 22.1611 183.423 13.2068 172.377 13.2068H154.53V16.862C154.53 22.9371 149.605 27.862 143.53 27.862H68.8305C62.4792 27.862 57.3305 22.7132 57.3305 16.362V13.2068Z"/>
</mask>
<path d="M57.3305 13.2068H58.3305V12.2068H57.3305V13.2068ZM154.53 13.2068V12.2068H153.53V13.2068H154.53ZM38.6229 13.2068V14.2068H57.3305V13.2068V12.2068H38.6229V13.2068ZM18.6229 33.2068H19.6229C19.6229 22.7134 28.1295 14.2068 38.6229 14.2068V13.2068V12.2068C27.0249 12.2068 17.6229 21.6088 17.6229 33.2068H18.6229ZM18.6229 370.793H19.6229V33.2068H18.6229H17.6229V370.793H18.6229ZM38.6229 390.793V389.793C28.1295 389.793 19.6229 381.286 19.6229 370.793H18.6229H17.6229C17.6229 382.391 27.0249 391.793 38.6229 391.793V390.793ZM172.377 390.793V389.793H38.6229V390.793V391.793H172.377V390.793ZM192.377 370.793H191.377C191.377 381.286 182.871 389.793 172.377 389.793V390.793V391.793C183.975 391.793 193.377 382.391 193.377 370.793H192.377ZM192.377 33.2068H191.377V370.793H192.377H193.377V33.2068H192.377ZM172.377 13.2068V14.2068C182.871 14.2068 191.377 22.7134 191.377 33.2068H192.377H193.377C193.377 21.6088 183.975 12.2068 172.377 12.2068V13.2068ZM154.53 13.2068V14.2068H172.377V13.2068V12.2068H154.53V13.2068ZM154.53 13.2068H153.53V16.862H154.53H155.53V13.2068H154.53ZM154.53 16.862H153.53C153.53 22.3848 149.053 26.862 143.53 26.862V27.862V28.862C150.157 28.862 155.53 23.4894 155.53 16.862H154.53ZM143.53 27.862V26.862H68.8305V27.862V28.862H143.53V27.862ZM68.8305 27.862V26.862C63.0315 26.862 58.3305 22.1609 58.3305 16.362H57.3305H56.3305C56.3305 23.2655 61.927 28.862 68.8305 28.862V27.862ZM57.3305 16.362H58.3305V13.2068H57.3305H56.3305V16.362H57.3305Z" fill="#F2F4F6" mask="url(#path-4-inside-2_2062_401)"/>
</g>
</g>
<defs>
<filter id="filter0_d_2062_401" x="0" y="0" width="211" height="408" filterUnits="userSpaceOnUse" color-interpolation-filters="sRGB">
<feFlood flood-opacity="0" result="BackgroundImageFix"/>
<feColorMatrix in="SourceAlpha" type="matrix" values="0 0 0 0 0 0 0 0 0 0 0 0 0 0 0 0 0 0 127 0" result="hardAlpha"/>
<feOffset dy="2"/>
<feGaussianBlur stdDeviation="2"/>
<feColorMatrix type="matrix" values="0 0 0 0 0 0 0 0 0 0 0 0 0 0 0 0 0 0 0.0442991 0"/>
<feBlend mode="normal" in2="BackgroundImageFix" result="effect1_dropShadow_2062_401"/>
<feBlend mode="normal" in="SourceGraphic" in2="effect1_dropShadow_2062_401" result="shape"/>
</filter>
<filter id="filter1_d_2062_401" x="0" y="0" width="211" height="408" filterUnits="userSpaceOnUse" color-interpolation-filters="sRGB">
<feFlood flood-opacity="0" result="BackgroundImageFix"/>
<feColorMatrix in="SourceAlpha" type="matrix" values="0 0 0 0 0 0 0 0 0 0 0 0 0 0 0 0 0 0 127 0" result="hardAlpha"/>
<feOffset dy="2"/>
<feGaussianBlur stdDeviation="2"/>
<feColorMatrix type="matrix" values="0 0 0 0 0 0 0 0 0 0 0 0 0 0 0 0 0 0 0.0442991 0"/>
<feBlend mode="normal" in2="BackgroundImageFix" result="effect1_dropShadow_2062_401"/>
<feBlend mode="normal" in="SourceGraphic" in2="effect1_dropShadow_2062_401" result="shape"/>
</filter>
<filter id="filter2_d_2062_401" x="14.6229" y="11.2068" width="181.754" height="385.586" filterUnits="userSpaceOnUse" color-interpolation-filters="sRGB">
<feFlood flood-opacity="0" result="BackgroundImageFix"/>
<feColorMatrix in="SourceAlpha" type="matrix" values="0 0 0 0 0 0 0 0 0 0 0 0 0 0 0 0 0 0 127 0" result="hardAlpha"/>
<feOffset dy="2"/>
<feGaussianBlur stdDeviation="2"/>
<feColorMatrix type="matrix" values="0 0 0 0 0 0 0 0 0 0 0 0 0 0 0 0 0 0 0.0442991 0"/>
<feBlend mode="normal" in2="BackgroundImageFix" result="effect1_dropShadow_2062_401"/>
<feBlend mode="normal" in="SourceGraphic" in2="effect1_dropShadow_2062_401" result="shape"/>
</filter>
<filter id="filter3_d_2062_401" x="14.6229" y="11.2068" width="181.754" height="385.586" filterUnits="userSpaceOnUse" color-interpolation-filters="sRGB">
<feFlood flood-opacity="0" result="BackgroundImageFix"/>
<feColorMatrix in="SourceAlpha" type="matrix" values="0 0 0 0 0 0 0 0 0 0 0 0 0 0 0 0 0 0 127 0" result="hardAlpha"/>
<feOffset dy="2"/>
<feGaussianBlur stdDeviation="2"/>
<feColorMatrix type="matrix" values="0 0 0 0 0 0 0 0 0 0 0 0 0 0 0 0 0 0 0.0442991 0"/>
<feBlend mode="normal" in2="BackgroundImageFix" result="effect1_dropShadow_2062_401"/>
<feBlend mode="normal" in="SourceGraphic" in2="effect1_dropShadow_2062_401" result="shape"/>
</filter>
</defs>
</svg>
