<svg width="20" height="20" viewBox="0 0 20 20" fill="none" xmlns="http://www.w3.org/2000/svg">
<path fill-rule="evenodd" clip-rule="evenodd" d="M14.0908 9.545L19.0907 14.545L20 15.4549L15.455 20L9.54619 14.0912L7.27356 16.3638L6.40986 17.1103C6.04789 17.4228 5.62777 17.6616 5.17464 17.8126L3.13388 18.4923L0.694588 19.3056L1.50706 16.8663L2.18761 14.8255C2.33865 14.3724 2.57738 13.9532 2.88986 13.5912L3.63638 12.7275L5.90967 10.4548L0 4.54508L4.54503 0L5.45475 0.908838L10.4547 5.9088L14.5448 1.81861C15.549 0.81515 17.1766 0.81515 18.181 1.81861C19.1853 2.82194 19.1853 4.45048 18.181 5.45481L14.0908 9.545ZM17.2731 2.72727C16.7705 2.22467 15.9563 2.22467 15.4546 2.72727L14.5457 3.63611L16.3643 5.45467L17.2731 4.54584C17.7757 4.04324 17.7757 3.229 17.2731 2.72727ZM13.636 4.54497L15.4546 6.36353L13.1813 8.63619L11.3627 6.81762L13.636 4.54497ZM3.63616 14.5449L2.72733 17.2722L5.4547 16.3635L3.63616 14.5449ZM6.36349 15.4545L4.54494 13.636L6.81757 11.3633L8.63525 13.181L6.36349 15.4545ZM14.3182 17.0449L15.4544 18.1812L18.179 15.4512L4.54305 1.81503L1.81577 4.54235L2.95204 5.67863L4.77058 3.86006L5.22544 4.31493L3.4069 6.13349L4.77058 7.49719L5.67941 6.58836L6.13427 7.04322L5.22544 7.95206L6.58913 9.31576L7.49796 8.40692L7.95281 8.86178L7.04399 9.77062L8.40767 11.1343L10.2262 9.31576L10.6811 9.77062L8.86253 11.5892L10.2262 12.9529L11.135 12.0441L11.5899 12.4989L10.6811 13.4078L12.0448 14.7715L12.9536 13.8626L13.4085 14.3175L12.4996 15.2263L13.8633 16.59L15.6819 14.7715L16.1367 15.2263L14.3182 17.0449Z" fill="white"/>
<path fill-rule="evenodd" clip-rule="evenodd" d="M14.0908 9.545L19.0907 14.545L20 15.4549L15.455 20L9.54619 14.0912L7.27356 16.3638L6.40986 17.1103C6.04789 17.4228 5.62777 17.6616 5.17464 17.8126L3.13388 18.4923L0.694588 19.3056L1.50706 16.8663L2.18761 14.8255C2.33865 14.3724 2.57738 13.9532 2.88986 13.5912L3.63638 12.7275L5.90967 10.4548L0 4.54508L4.54503 0L5.45475 0.908838L10.4547 5.9088L14.5448 1.81861C15.549 0.81515 17.1766 0.81515 18.181 1.81861C19.1853 2.82194 19.1853 4.45048 18.181 5.45481L14.0908 9.545ZM17.2731 2.72727C16.7705 2.22467 15.9563 2.22467 15.4546 2.72727L14.5457 3.63611L16.3643 5.45467L17.2731 4.54584C17.7757 4.04324 17.7757 3.229 17.2731 2.72727ZM13.636 4.54497L15.4546 6.36353L13.1813 8.63619L11.3627 6.81762L13.636 4.54497ZM3.63616 14.5449L2.72733 17.2722L5.4547 16.3635L3.63616 14.5449ZM6.36349 15.4545L4.54494 13.636L6.81757 11.3633L8.63525 13.181L6.36349 15.4545ZM14.3182 17.0449L15.4544 18.1812L18.179 15.4512L4.54305 1.81503L1.81577 4.54235L2.95204 5.67863L4.77058 3.86006L5.22544 4.31493L3.4069 6.13349L4.77058 7.49719L5.67941 6.58836L6.13427 7.04322L5.22544 7.95206L6.58913 9.31576L7.49796 8.40692L7.95281 8.86178L7.04399 9.77062L8.40767 11.1343L10.2262 9.31576L10.6811 9.77062L8.86253 11.5892L10.2262 12.9529L11.135 12.0441L11.5899 12.4989L10.6811 13.4078L12.0448 14.7715L12.9536 13.8626L13.4085 14.3175L12.4996 15.2263L13.8633 16.59L15.6819 14.7715L16.1367 15.2263L14.3182 17.0449Z" fill="white"/>
</svg>
