<svg width="17" height="10" viewBox="0 0 17 10" fill="none" xmlns="http://www.w3.org/2000/svg">
<path fill-rule="evenodd" clip-rule="evenodd" d="M11.3333 9.72222C11.3333 9.86979 11.2005 10 11.05 10H2.55C2.2224 10 2.26667 9.66146 2.26667 9.44444V4.44444H0.566667C0.256771 4.44444 0 4.19271 0 3.88889C0 3.75868 0.0442708 3.62847 0.132812 3.53299L2.96615 0.199653C3.0724 0.078125 3.23177 0.00868056 3.4 0.00868056C3.56823 0.00868056 3.7276 0.078125 3.83385 0.199653L6.66719 3.53299C6.75573 3.62847 6.8 3.75868 6.8 3.88889C6.8 4.19271 6.54323 4.44444 6.23333 4.44444H4.53333V7.77778H9.63333C9.71302 7.77778 9.80156 7.8125 9.85469 7.87326L11.2714 9.53993C11.3068 9.59201 11.3333 9.66146 11.3333 9.72222ZM17 6.11111C17 6.24132 16.9557 6.37153 16.8672 6.46701L14.0339 9.80035C13.9276 9.92188 13.7682 10 13.6 10C13.4318 10 13.2724 9.92188 13.1661 9.80035L10.3328 6.46701C10.2443 6.37153 10.2 6.24132 10.2 6.11111C10.2 5.80729 10.4568 5.55556 10.7667 5.55556H12.4667V2.22222H7.36667C7.28698 2.22222 7.19844 2.1875 7.14531 2.11806L5.72865 0.451389C5.69323 0.407986 5.66667 0.338542 5.66667 0.277778C5.66667 0.130208 5.79948 0 5.95 0H14.45C14.7776 0 14.7333 0.338542 14.7333 0.555556V5.55556H16.4333C16.7432 5.55556 17 5.80729 17 6.11111Z" fill="white"/>
</svg>
