<svg width="14" height="10" viewBox="0 0 14 10" fill="none" xmlns="http://www.w3.org/2000/svg">
<path d="M9.33333 3.94742H7V0.789551C7 0.489554 6.83226 0.215082 6.56756 0.0821887C6.30259 -0.0512312 5.98604 -0.020442 5.75089 0.161662L0.306444 4.37215C0.113556 4.5211 0 4.75373 0 5.00004C0 5.24636 0.113296 5.47899 0.306444 5.62819L5.75089 9.83869C5.88907 9.94526 6.05526 10 6.22274 10C6.34019 10 6.45815 9.97289 6.56756 9.9179C6.83252 9.785 7 9.51053 7 9.21053V6.05266H9.33333C10.7629 6.05266 11.9259 7.23318 11.9259 8.68422C11.9259 9.2658 12.39 9.73684 12.963 9.73684C13.5359 9.73684 14 9.2658 14 8.68422C14 6.0724 11.9065 3.94742 9.33333 3.94742Z" fill="white"/>
</svg>
