<svg width="61" height="50" viewBox="0 0 61 50" fill="none" xmlns="http://www.w3.org/2000/svg">
<path d="M15.8811 5L17 0.328381C17 0.146212 16.8331 0 16.6216 0H10.3784C10.1716 0 10 0.146212 10 0.328381L11.1212 5C11.8499 4.72435 12.6562 4.57335 13.5 4.57335C14.3462 4.57575 15.1454 4.72435 15.8811 5H15.8811Z" fill="#1278F1"/>
<path fill-rule="evenodd" clip-rule="evenodd" d="M22 2.98997L33.8177 0L34.5791 2.97761C45.9311 0.0925879 57.4654 6.9602 60.3467 18.303C63.2183 29.6389 56.3568 41.1643 45.0029 44.0372L45.7525 47.01L33.9398 50L32.2354 43.291L23.7019 9.699L22 2.98997ZM37.2727 8.98446L36.2594 4.98975C36.2032 4.75807 35.9151 4.63125 35.6294 4.70442C35.3291 4.78002 35.1411 5.02634 35.1997 5.25802L36.2179 9.25516C36.2765 9.48685 36.5597 9.61123 36.8503 9.53074C37.1433 9.46002 37.3313 9.2137 37.2727 8.98446ZM44.6273 7.9992C44.3441 7.91629 44.1414 7.73094 44.1805 7.58705L44.9032 5.02143C44.9471 4.87267 45.2182 4.81901 45.5087 4.90193C45.7968 4.98241 45.9971 5.1702 45.9555 5.31896L45.2255 7.88458C45.1888 8.02602 44.9251 8.07724 44.6272 7.9992L44.6273 7.9992ZM51.5862 11.6403C51.4763 11.7549 51.5569 12.011 51.7644 12.2256C51.972 12.4426 52.2332 12.5353 52.3504 12.4231L54.255 10.5623C54.3697 10.4526 54.2892 10.1916 54.0743 9.97702C53.8643 9.76484 53.6104 9.67461 53.4956 9.77947L51.5862 11.6403ZM54.7433 20.315C54.5187 20.3711 54.2745 20.1809 54.1988 19.8907C54.1255 19.5956 54.2501 19.3127 54.4747 19.2542L58.4766 18.2372C58.7086 18.186 58.9528 18.3713 59.0285 18.664C59.1017 18.9518 58.9772 19.242 58.7477 19.298L54.7433 20.315ZM55.8518 28.3387L58.4181 29.0606C58.5646 29.1045 58.7477 28.9021 58.8331 28.6167C58.9113 28.3265 58.8649 28.0558 58.7135 28.0168L56.1472 27.295C55.9959 27.2486 55.8127 27.4535 55.7322 27.7364C55.654 28.029 55.7029 28.2973 55.8518 28.3387ZM53.1635 37.3548L51.3029 35.4428C51.1955 35.3306 51.2834 35.077 51.5007 34.8624C51.7107 34.6551 51.9744 34.577 52.0867 34.6892L53.9473 36.5915C54.0596 36.7037 53.9669 36.9597 53.7495 37.1695C53.5298 37.3816 53.271 37.4621 53.1635 37.3548ZM39.1875 44.2296C39.1118 43.9394 38.8676 43.7467 38.643 43.8004L34.6361 44.8198C34.4066 44.8734 34.287 45.1636 34.3602 45.449C34.431 45.7441 34.6752 45.9367 34.9071 45.8758L38.914 44.8588C39.1411 44.8076 39.2607 44.5198 39.1875 44.2296ZM43.4116 37.7668C43.3482 37.5327 43.5411 37.2864 43.8292 37.2132C44.1197 37.1425 44.403 37.2668 44.4616 37.4936L45.4749 41.4957C45.5384 41.7225 45.343 41.9713 45.0573 42.0396C44.7619 42.1127 44.4787 41.9932 44.425 41.7591L43.4116 37.7668ZM35.8398 38.2009C35.769 37.9204 35.5908 37.7107 35.4394 37.7473L32.8537 38.4009C32.7023 38.4399 32.6437 38.7082 32.7218 38.9959C32.7902 39.2886 32.9684 39.4959 33.1247 39.4569L35.7104 38.8033C35.8594 38.7691 35.918 38.5009 35.8398 38.2009ZM33.8035 31.3017C33.9475 31.2603 34.1331 31.4627 34.2063 31.7529C34.2771 32.048 34.2185 32.3138 34.0696 32.3504L31.4741 33.004C31.3349 33.043 31.1493 32.8382 31.0737 32.5455C31.0004 32.2553 31.0614 31.9919 31.2055 31.948L33.8035 31.3017ZM34.2723 24.8734C34.1966 24.5832 33.95 24.3929 33.7278 24.4466L29.721 25.4684C29.4865 25.5221 29.3669 25.8074 29.4402 26.0976C29.511 26.3927 29.7625 26.5829 29.9871 26.5244L33.9915 25.5099C34.221 25.4489 34.3504 25.1636 34.2723 24.8734ZM30.5242 18.396C30.6708 18.357 30.849 18.5643 30.9271 18.852C31.0004 19.1422 30.9393 19.413 30.7904 19.4471L28.2022 20.1031C28.0533 20.1422 27.8774 19.9324 27.7993 19.6446C27.7212 19.352 27.7871 19.091 27.9312 19.0496L30.5242 18.396ZM47.4626 21.5591C46.3906 17.3253 42.0783 14.7621 37.8395 15.8352L41.7368 31.1706C45.9683 30.0924 48.5345 25.7903 47.4626 21.5591ZM28.8859 11.9429C29.0349 11.9063 29.2155 12.1088 29.2888 12.4014C29.3669 12.6916 29.301 12.9623 29.1521 12.9989L26.5663 13.6574C26.4174 13.6915 26.2367 13.4891 26.1634 13.194C26.0902 12.9014 26.1512 12.6404 26.3002 12.6014L28.8859 11.9429ZM29.3572 5.51658C29.2839 5.23124 29.0349 5.04102 28.8102 5.09467L24.8034 6.11163C24.5738 6.16528 24.4518 6.45305 24.5226 6.74327C24.5983 7.03592 24.8449 7.22371 25.0744 7.17005L29.0813 6.15308C29.3035 6.09457 29.428 5.80924 29.3572 5.51658Z" fill="#1278F1"/>
<path d="M25.9449 41.6061L23.1321 32.0122L22.6107 30.2395L19.0182 18C18.0639 19.148 16.6408 19.9487 15 20.1489L17.277 27.9048L17.9611 30.2393L18.0711 30.6083L18.4849 32.012L21.6086 42.6672C21.8909 43.6247 22.9672 44.1915 24.0124 43.9406L24.3855 43.8466L24.5553 43.8056C25.3685 43.6078 25.9139 42.9808 26 42.2621L25.9449 41.6061Z" fill="#1278F1"/>
<path d="M7.97605 18L4.38753 30.2391L3.866 32.0117L1.05742 41.6053L1 42.2613C1.08613 42.98 1.63877 43.607 2.4426 43.8048L2.61245 43.8458L2.98566 43.9398C4.03587 44.1931 5.11009 43.6239 5.39236 42.6665L8.52156 32.0116L8.92826 30.608L9.03831 30.239L9.7273 27.9045L12 20.1489C10.3636 19.9487 8.9378 19.148 7.97609 18.0001L7.97605 18Z" fill="#1278F1"/>
<path d="M0 45C0 45 1.20344 46.1987 3 46.2335L1.2258 49L0 45Z" fill="#1278F1"/>
<path d="M26 45C26 45 24.7961 46.1987 23 46.2335L24.7762 49L26 45Z" fill="#1278F1"/>
<path fill-rule="evenodd" clip-rule="evenodd" d="M15.3819 6.49157C14.6479 6.17405 13.8457 6 13.0012 6C12.1567 6 11.3521 6.17405 10.6205 6.49157C8.48909 7.41119 7 9.5304 7 11.9953C7 13.3571 7.45638 14.6131 8.22326 15.6197C9.16191 16.8593 10.564 17.7154 12.1754 17.9388C12.4389 17.9765 12.7212 18 13.0012 18C13.2811 18 13.5587 17.9741 13.8316 17.9388C15.4384 17.7178 16.8428 16.8593 17.7767 15.6197C18.5389 14.6131 19 13.3618 19 11.9953C19 9.53034 17.5108 7.41119 15.3819 6.49157ZM8.10324 12.5176C7.84211 12.5176 7.62098 12.2847 7.62098 12.0001C7.62098 11.7085 7.83741 11.4733 8.10559 11.4733H9.19715C9.46063 11.4733 9.68176 11.7085 9.67941 12.0001C9.67941 12.2824 9.46533 12.5176 9.19715 12.5176H8.10324ZM9.90284 15.8292L10.6768 15.0554C10.865 14.8649 10.8509 14.545 10.6509 14.3498C10.4509 14.1381 10.1286 14.1287 9.93809 14.3192L9.16885 15.0883C8.98066 15.2788 8.99477 15.594 9.19708 15.8033C9.40176 16.0033 9.717 16.0127 9.90284 15.8292ZM13.521 16.89C13.521 17.1557 13.2858 17.3745 13.0011 17.3745C12.7118 17.3745 12.4765 17.1581 12.4765 16.89V15.8033C12.4765 15.5375 12.7118 15.3188 13.0011 15.3188C13.2858 15.3188 13.521 15.5352 13.521 15.8033V16.89ZM10.5804 11.9954C10.5804 13.336 11.6649 14.4203 13.0011 14.4203C14.3303 14.4203 15.4195 13.3384 15.4218 11.9954C15.4218 10.6595 14.3326 9.5752 13.0011 9.5752C11.6649 9.5752 10.5804 10.6571 10.5804 11.9954ZM16.8027 15.801C16.5957 16.0009 16.2781 16.0174 16.0899 15.8292L15.3207 15.0578C15.1301 14.8672 15.1466 14.5521 15.3489 14.3474C15.5512 14.1428 15.8688 14.1311 16.0594 14.3192L16.8286 15.0883C17.0168 15.2788 17.0027 15.601 16.8027 15.801ZM16.8027 12.5223H17.8943C18.1625 12.5176 18.3789 12.2871 18.3789 12.0001C18.3789 11.7108 18.1601 11.4756 17.8943 11.4756H16.8027C16.5369 11.4756 16.3205 11.7108 16.3205 12.0001C16.3205 12.2871 16.5393 12.5223 16.8027 12.5223Z" fill="#1278F1"/>
</svg>
