<svg width="61" height="52" viewBox="0 0 61 52" fill="none" xmlns="http://www.w3.org/2000/svg">
<path fill-rule="evenodd" clip-rule="evenodd" d="M38.2533 20.9518C40.0958 20.9518 41.9383 20.2486 43.3447 18.8423L43.3448 18.842C43.3532 18.8336 43.361 18.8244 43.3687 18.8153C43.3764 18.8062 43.3842 18.797 43.3926 18.7886H51.28L50.9846 26.4785L27.5615 49.899C24.7596 52.7003 20.1744 52.7003 17.3756 49.899L2.10125 34.6264C-0.700417 31.8247 -0.700417 27.2429 2.10125 24.4415L25.5215 1.0182L52 0L51.6653 8.70806H43.3897C43.3813 8.69962 43.3743 8.69118 43.3672 8.68275C43.3602 8.67431 43.3532 8.66587 43.3447 8.65743C41.9383 7.25111 40.0958 6.54796 38.2533 6.54796C36.4108 6.54796 34.5684 7.25114 33.1619 8.65743C30.3518 11.4706 30.3518 16.0325 33.1619 18.8423C34.5684 20.2486 36.4108 20.9518 38.2533 20.9518ZM26.6894 37.3321L27.8061 38.4487L30.335 35.8977L29.1986 34.7614C29.3111 34.5898 29.4208 34.4154 29.5221 34.2354C29.9525 33.4619 30.2591 32.576 30.2619 31.6C30.2647 30.9953 30.1381 30.3709 29.8793 29.7915C29.6233 29.2121 29.2408 28.6805 28.771 28.2108C28.2815 27.7214 27.7302 27.3305 27.1367 27.0745C26.5432 26.8158 25.9159 26.6976 25.328 26.7004C24.3603 26.7032 23.5192 26.9845 22.7823 27.3136C22.0112 27.6647 21.321 28.0842 20.6971 28.4634C20.4264 28.6279 20.1683 28.7848 19.9215 28.9252C19.5192 29.1559 19.1507 29.3415 18.8525 29.454C18.5515 29.5693 18.3349 29.6087 18.2027 29.6059C18.1043 29.6059 18.048 29.5946 17.9693 29.5609C17.8933 29.5271 17.7836 29.4653 17.6205 29.3049C17.5192 29.2065 17.4151 29.0602 17.342 28.8971C17.2717 28.734 17.2295 28.5596 17.2295 28.3627C17.2295 28.1686 17.266 27.9464 17.3954 27.6624C17.5248 27.3811 17.7527 27.0295 18.1549 26.6273C18.6584 26.121 19.1198 25.7976 19.4995 25.6091C19.8821 25.4179 20.1718 25.3644 20.3856 25.3644C20.5488 25.3644 20.6753 25.3925 20.8019 25.446C20.9285 25.5022 21.0607 25.5866 21.2042 25.7272L23.747 23.1818C23.3138 22.7487 22.7991 22.3886 22.2252 22.1411C21.6514 21.8964 21.0213 21.767 20.3856 21.767C19.5388 21.767 18.695 21.9893 17.8989 22.3858C17.6683 22.5012 17.4404 22.6362 17.2154 22.7796L16.0846 21.6461L13.5389 24.1916L14.6274 25.2801C14.4334 25.5726 14.259 25.8707 14.1211 26.1745C13.7892 26.9002 13.6289 27.6539 13.6317 28.3627C13.6317 29.0912 13.7976 29.7718 14.0564 30.3569C14.318 30.9419 14.6725 31.4425 15.0803 31.8503C15.5164 32.2863 16.0143 32.6407 16.5572 32.8713C17.0972 33.1048 17.6739 33.2117 18.2112 33.2089C19.1676 33.2032 19.9833 32.9164 20.6978 32.5873C21.4014 32.2567 22.0395 31.8692 22.6273 31.5123C22.9348 31.3255 23.2286 31.1471 23.5107 30.9897C23.9186 30.759 24.2899 30.5734 24.6049 30.4609C24.9199 30.3456 25.1647 30.3034 25.3391 30.3034C25.4825 30.3034 25.5838 30.3259 25.716 30.3793C25.8482 30.4384 26.0142 30.5396 26.2364 30.759C26.4389 30.9644 26.543 31.1275 26.5993 31.254C26.6555 31.3834 26.6724 31.4791 26.6752 31.6028C26.678 31.7969 26.6105 32.0922 26.3911 32.486C26.1745 32.8769 25.8145 33.3382 25.3447 33.8079C24.9819 34.1707 24.6359 34.407 24.3349 34.5448C24.0311 34.6854 23.778 34.7332 23.567 34.7332C23.221 34.7248 22.9622 34.6292 22.6612 34.3395L20.1184 36.8849C21.027 37.8075 22.2843 38.3419 23.5699 38.3334C24.349 38.3334 25.1283 38.1478 25.8568 37.8075C26.1409 37.6753 26.4193 37.5093 26.6894 37.3321Z" fill="#1278F1"/>
<path d="M41.6964 11.75C41.5417 11.493 41.3674 11.2442 41.1424 11.0254C40.4646 10.3664 39.5591 10 38.5973 10C37.6355 10 36.7299 10.3637 36.0521 11.0254C34.6488 12.3898 34.6488 14.6102 36.0549 15.9746C36.7327 16.6336 37.6382 17 38.6001 17C39.5618 17 40.4674 16.6363 41.1452 15.9746C41.3702 15.7559 41.5473 15.507 41.702 15.25H61V11.7499L41.6964 11.75Z" fill="#1278F1"/>
</svg>
