<svg width="57" height="57" viewBox="0 0 57 57" fill="none" xmlns="http://www.w3.org/2000/svg">
<path d="M21.295 38H9.70501C8.76254 38 8 38.8973 8 40C8 41.1055 8.76499 42 9.70501 42H21.295C22.2375 42 23 41.1027 23 40C23 38.8973 22.2398 38 21.295 38Z" fill="#1278F1"/>
<path d="M21.3897 46H5.61029C4.72018 46 4 46.8945 4 48C4 49.1055 4.7225 50 5.61029 50H21.3897C22.2798 50 23 49.1027 23 48C23 46.8917 22.282 46 21.3897 46Z" fill="#1278F1"/>
<path d="M55.9143 13.6829C56.2991 13.2151 56.2395 12.5192 55.7814 12.1282L52.5794 9.39813C52.1191 9.00712 51.4342 9.06764 51.0517 9.53545L47.355 14.011C44.2996 11.7418 40.6946 10.215 36.7731 9.66575L36.7708 5.6975H41.4914C42.0205 5.6975 42.4511 5.26227 42.4511 4.72232V0.975173C42.4511 0.437544 42.0228 0 41.4914 0L25.6759 0.00232786C25.1468 0.00232786 24.7162 0.437554 24.7162 0.977501V4.72465C24.7162 5.26228 25.1445 5.69982 25.6759 5.69982H30.3964V9.65176C26.5119 10.1894 22.8841 11.7022 19.7964 13.99L16.118 9.53766C15.7332 9.06984 15.0507 9.00933 14.5903 9.40034L11.3883 12.1304C10.9279 12.5214 10.8684 13.2173 11.2555 13.6851L15.211 18.4749C13.933 20.1227 12.845 21.9497 12.0136 23.9513C11.6036 24.9311 12.0548 26.0646 13.0237 26.4812C13.9925 26.9001 15.1034 26.437 15.5134 25.4548C18.5917 18.0607 25.6854 13.2823 33.587 13.2823C44.3998 13.2823 53.1998 22.2219 53.1998 33.2117C53.1998 44.1992 44.3998 53.1388 33.587 53.1388C30.4239 53.1388 27.4098 52.3987 24.62 50.9417C23.6901 50.453 22.5425 50.8254 22.0616 51.7726C21.5806 52.7198 21.947 53.8836 22.8792 54.3723C26.1637 56.0923 29.8673 57 33.5871 57C46.4962 57 57 46.3289 57 33.209C56.9977 27.6535 55.0989 22.5469 51.9427 18.4906L55.9143 13.6829Z" fill="#1278F1"/>
<path d="M38.4647 33.4693C44.9253 25.7839 45.3111 23.5625 44.8744 23.1258C44.4352 22.689 42.2162 23.0727 34.5308 29.5355C30.874 32.6097 32.0251 34.3734 32.8249 35.1731C33.627 35.9752 35.3906 37.1263 38.4649 33.4696L38.4647 33.4693Z" fill="#1278F1"/>
<path d="M22.9999 31C22.9999 29.8945 22.251 29 21.3255 29H1.67445C0.748867 29 0 29.8973 0 31C0 32.1055 0.748927 33 1.67445 33H21.3279C22.2535 33 23 32.1055 23 31H22.9999Z" fill="#1278F1"/>
</svg>
