<svg width="102" height="29" viewBox="0 0 102 29" fill="none" xmlns="http://www.w3.org/2000/svg">
<path fill-rule="evenodd" clip-rule="evenodd" d="M8.38234 0.373535L2.94446 15.1646H5.08325L6.12201 12.146H8.24072L8.01618 15.1646H10.1545L11.0712 0.373535H8.38234ZM8.83091 4.80036L8.81082 5.18397L8.44363 9.85246H6.93674L8.5662 5.18397L8.70834 4.80036H8.83091Z" fill="white"/>
<path d="M20.1959 0.373535L17.6704 12.1251C17.5071 12.7291 17.263 13.2729 16.9581 13.7349C16.6522 14.1373 16.3061 14.521 15.8375 14.8216C15.3488 15.1646 14.758 15.3258 14.0453 15.3258C13.332 15.3258 12.8031 15.1646 12.4359 14.8216C12.0898 14.521 11.9065 14.1373 11.8251 13.7349C11.6825 13.2729 11.6825 12.7499 11.804 12.1251L14.3296 0.373535H16.5296L14.0041 12.1251C13.9021 12.5088 13.9433 12.8303 14.1066 13.0511C14.1879 13.1524 14.3095 13.2119 14.4928 13.2119C14.8801 13.2119 15.1242 12.9707 15.2674 12.6695C15.3287 12.5484 15.41 12.3663 15.4703 12.1251L17.9964 0.373535H20.1959Z" fill="white"/>
<path d="M20.2814 2.60808L20.7702 0.373047H27.1253L26.6365 2.60808H24.5595L21.8707 15.1646H19.6707L22.3595 2.60808H20.2814Z" fill="white"/>
<path fill-rule="evenodd" clip-rule="evenodd" d="M30.257 13.7343C30.5613 13.2723 30.8054 12.729 30.9692 12.1245L32.8428 3.41284C32.9458 2.78756 32.9458 2.26505 32.8026 1.82191C32.7212 1.41947 32.5168 1.01704 32.1707 0.715842C31.8246 0.413632 31.3163 0.212158 30.583 0.212158C29.8491 0.212158 29.2378 0.413632 28.7691 0.715842C28.3015 1.01704 27.9755 1.41947 27.6701 1.82191C27.3441 2.30474 27.1196 2.82877 26.9764 3.41284L25.1029 12.1245C24.9808 12.7498 24.9808 13.2723 25.124 13.7343C25.2048 14.1367 25.3887 14.5204 25.7348 14.8215C26.102 15.1645 26.6303 15.3252 27.3441 15.3252C28.0574 15.3252 28.6476 15.1645 29.1363 14.8215C29.605 14.5204 29.9511 14.1367 30.257 13.7343ZM30.5413 2.48688C30.6844 2.70718 30.7246 3.0104 30.6432 3.41284L28.7691 12.1245C28.7089 12.3662 28.6275 12.5478 28.5657 12.6689C28.4231 12.9701 28.1789 13.2118 27.7917 13.2118C27.6083 13.2118 27.4868 13.1523 27.4054 13.0505C27.2422 12.8302 27.2004 12.5082 27.3024 12.1245L29.176 3.41284C29.2177 3.21137 29.2795 3.02923 29.3609 2.86846C29.5025 2.60797 29.7471 2.3256 30.1344 2.3256C30.3172 2.3256 30.4604 2.38512 30.5413 2.48688Z" fill="white"/>
<path d="M37.9 4.33826C38.0025 3.85544 38.1035 3.31156 38.0427 2.88928C37.9814 2.48684 37.8187 2.206 37.4726 2.206C36.902 2.22483 36.5966 2.8089 36.4132 3.6733C36.3107 4.17749 36.3921 4.70102 36.6177 5.26423C36.8407 5.82795 37.1064 6.40998 37.4113 7.03526C37.7986 7.77858 38.1035 8.54377 38.3476 9.28862C38.5731 10.0319 38.6736 10.7971 38.4913 11.602C38.2662 12.589 37.9402 13.4931 37.3098 14.1988C36.6779 14.9024 35.8632 15.3257 34.6411 15.3257C33.2357 15.3257 32.544 14.8017 32.2783 13.9968C31.9734 13.1919 32.1367 12.1459 32.3597 11.0189L34.5597 10.818C34.4176 11.4412 34.3151 12.0655 34.3764 12.5275C34.4367 13.0103 34.5999 13.3323 35.0696 13.3323C35.7216 13.3323 36.0872 12.6485 36.3107 11.7038C36.4132 11.2204 36.3107 10.6572 36.0872 10.0726C36.026 9.93272 35.9657 9.77195 35.9034 9.62949C35.8431 9.48958 35.7818 9.32881 35.7216 9.18737C35.5774 8.88618 35.4146 8.56463 35.2514 8.22172C35.0887 7.87983 34.9259 7.53691 34.7627 7.15533C34.4176 6.39116 34.2338 5.62597 34.1735 4.86179C34.1112 4.47818 34.1735 4.07574 34.2549 3.6733C34.4176 2.86842 34.7838 2.00402 35.4146 1.33905C36.0059 0.695458 36.8206 0.233493 37.8588 0.212633C39.2246 0.193809 39.8555 0.73616 40.1212 1.52119C40.3653 2.32607 40.284 3.31156 40.0996 4.1373L37.9 4.33826Z" fill="white"/>
<path fill-rule="evenodd" clip-rule="evenodd" d="M44.5131 0.373047H42.3125L39.1355 15.1646H41.3356L42.5984 9.24806C43.5557 9.24806 44.5749 8.98605 45.4504 8.28191C46.3264 7.57726 47.0387 6.49052 47.4265 4.79987C47.8127 3.10973 47.5485 2.00366 46.9568 1.29952C46.3676 0.595889 45.471 0.373047 44.5131 0.373047ZM44.5131 6.57091C44.2077 6.91382 43.7396 7.03542 43.0675 7.03542L44.0239 2.58722C44.697 2.58722 45.1043 2.76885 45.2671 3.10973C45.4303 3.49385 45.3691 4.05656 45.1852 4.88077C45.0013 5.7065 44.8381 6.24885 44.5131 6.57091Z" fill="white"/>
<path d="M49.3336 0.373535H54.3651L53.8759 2.60857H51.0444L50.2096 6.4905H52.2464L51.7365 8.86545H49.6997L48.8247 12.93H51.6552L51.1876 15.1646H46.156L49.3336 0.373535Z" fill="white"/>
<path d="M55.5599 0.373535H60.5904L60.1011 2.60857H57.2707L56.4349 6.4905H58.4717L57.9639 8.86545H55.9271L55.05 12.93H57.8825L57.4128 15.1646H52.3823L55.5599 0.373535Z" fill="white"/>
<path fill-rule="evenodd" clip-rule="evenodd" d="M61.7852 0.373047L58.6077 15.1641H60.3401C62.377 15.1641 63.5589 14.7616 64.3927 13.6352C65.2074 12.5083 65.6771 10.6757 66.3079 7.77822C66.9393 4.86143 67.2442 3.02935 66.9182 1.90292C66.532 0.775486 65.5545 0.373047 63.5177 0.373047H61.7852ZM62.8446 12.1867C62.4583 12.9107 62.0108 12.9916 61.2563 12.9916L63.5177 2.54652C64.2711 2.54652 64.6785 2.62691 64.7398 3.33257C64.8202 4.04842 64.582 5.15822 64.3805 6.09686L64.3736 6.12878C64.3394 6.29014 64.3028 6.45825 64.2648 6.63315C64.189 6.9816 64.1074 7.35697 64.0265 7.7594C63.936 8.1447 63.8613 8.50547 63.7926 8.83682C63.7539 9.02395 63.717 9.20168 63.6804 9.36915C63.4775 10.3348 63.1917 11.5213 62.8446 12.1867Z" fill="white"/>
<path d="M2.82907 22.9333C2.87645 22.6978 2.92744 22.4347 2.89654 22.2261C2.86615 22.0323 2.78787 21.8929 2.61895 21.8929C2.34034 21.9026 2.19047 22.1854 2.10292 22.6087C2.05142 22.8565 2.09159 23.1119 2.20026 23.3831C2.31098 23.6614 2.4387 23.9463 2.58857 24.248C2.7786 24.6143 2.92744 24.9903 3.0464 25.3515C3.15713 25.7143 3.20502 26.0877 3.11696 26.4805C3.0052 26.9618 2.84916 27.4049 2.54016 27.7478C2.22961 28.0913 1.83306 28.2988 1.23669 28.2988C0.54968 28.2988 0.21184 28.0429 0.0820603 27.6491C-0.0667747 27.2569 0.0115053 26.7425 0.12223 26.1976L1.19549 26.0969C1.12803 26.4006 1.07704 26.7074 1.10794 26.9333C1.13833 27.1658 1.21661 27.325 1.44578 27.325C1.76302 27.325 1.94276 26.9913 2.05142 26.5278C2.10292 26.2933 2.05142 26.018 1.94276 25.7351C1.91289 25.6644 1.8825 25.5871 1.85315 25.5153C1.82225 25.4487 1.79289 25.3724 1.76302 25.3006C1.69247 25.1536 1.61419 24.9989 1.53539 24.83C1.45505 24.6616 1.37368 24.4958 1.29437 24.3085C1.12803 23.9376 1.03842 23.5627 1.00752 23.1877C0.97713 22.9995 1.00752 22.8061 1.04769 22.6087C1.12803 22.2155 1.30416 21.7922 1.61419 21.4696C1.90362 21.1562 2.30223 20.9278 2.80899 20.9191C3.47385 20.9069 3.78388 21.175 3.9116 21.5586C4.03108 21.9519 3.99194 22.4347 3.9013 22.8372L2.82907 22.9333Z" fill="white"/>
<path fill-rule="evenodd" clip-rule="evenodd" d="M5.9361 20.9995L3.28076 28.2185H4.32673L4.83143 26.743H5.86658L5.75791 28.2185H6.80285L7.2509 20.9995H5.9361ZM6.15549 23.1603L6.14622 23.3475L5.96803 25.6278H5.2321L6.02674 23.3475L6.09781 23.1603H6.15549Z" fill="white"/>
<path d="M9.3691 28.2185L9.65905 23.6823L9.68016 23.3745H9.61836L8.58476 28.2185H7.58875L9.14302 20.9995H10.4532L10.3749 24.2994L10.345 24.681H10.3651L10.4949 24.2994L11.8457 20.9995H13.159L11.6083 28.2185H10.6133L11.6485 23.3745H11.5903L11.4873 23.6823L9.82694 28.2185H9.3691Z" fill="white"/>
<path d="M14.3399 20.9995H16.7954L16.56 22.0878H15.1757L14.7684 23.9855H15.7633L15.5156 25.145H14.5201L14.0927 27.1307H15.4744L15.2442 28.2185H12.7887L14.3399 20.9995Z" fill="white"/>
<path fill-rule="evenodd" clip-rule="evenodd" d="M19.4317 20.999L17.8784 28.2185H18.7235C19.7175 28.2185 20.2958 28.0216 20.7032 27.4742C21.1013 26.9227 21.3305 26.0303 21.6395 24.6144C21.9464 23.1873 22.0942 22.2949 21.9371 21.7434C21.7481 21.1959 21.2692 20.999 20.2757 20.999H19.4317ZM19.9487 26.7639C19.7587 27.1185 19.5414 27.1572 19.1711 27.1572L20.2757 22.0603C20.6424 22.0603 20.8417 22.0995 20.8721 22.4439C20.9123 22.797 20.7933 23.3475 20.6939 23.8044C20.6751 23.8922 20.6553 23.983 20.6347 24.0773C20.5989 24.2413 20.5608 24.4158 20.5219 24.6032C20.4776 24.7975 20.4408 24.9786 20.407 25.1448C20.3894 25.2315 20.3727 25.314 20.3561 25.3923C20.2551 25.8614 20.1145 26.4419 19.9487 26.7639Z" fill="white"/>
<path fill-rule="evenodd" clip-rule="evenodd" d="M24.1924 20.9995L21.5365 28.2185H22.5799L23.0866 26.743H24.1249L24.0142 28.2185H25.057L25.5061 20.9995H24.1924ZM24.4107 23.1603L24.4014 23.3475L24.2222 25.6278H23.4863L24.2799 23.3475L24.351 23.1603H24.4107Z" fill="white"/>
<path d="M27.9162 23.3088L27.9271 23.3745H27.9466L27.9976 23.3088L29.0322 20.9995H30.0859L28.0975 25.145L27.4414 28.2185H26.3661L27.0232 25.145L26.826 20.9995H27.8792L27.9162 23.3088Z" fill="white"/>
<path fill-rule="evenodd" clip-rule="evenodd" d="M33.3948 20.9995L30.7405 28.2185H31.7834L32.2911 26.743H33.3273L33.2187 28.2185H34.2605L34.7086 20.9995H33.3948ZM33.6162 23.1603L33.6059 23.3475L33.4257 25.6278H32.6918L33.4854 23.3475L33.5555 23.1603H33.6162Z" fill="white"/>
<path d="M39.4219 20.9995L38.1885 26.7339C38.1092 27.032 37.9887 27.2976 37.8429 27.521C37.691 27.7209 37.5226 27.9086 37.2945 28.0516C37.055 28.2185 36.7666 28.2994 36.4184 28.2994C36.0703 28.2994 35.8118 28.2185 35.632 28.0516C35.4626 27.9086 35.3745 27.7209 35.3333 27.521C35.2659 27.2976 35.2659 27.0422 35.323 26.7339L36.559 20.9995H37.6313L36.3984 26.7339C36.3489 26.9231 36.3669 27.0829 36.4488 27.1852C36.488 27.2381 36.5493 27.2655 36.6368 27.2655C36.8258 27.2655 36.9463 27.1455 37.0138 27.0025C37.0442 26.943 37.0854 26.8545 37.1127 26.7339L38.3476 20.9995H39.4219Z" fill="white"/>
<path d="M39.72 22.0873L39.9616 20.999H43.0634L42.8234 22.0873H41.8109L40.4977 28.2185H39.4224L40.7366 22.0873H39.72Z" fill="white"/>
<path fill-rule="evenodd" clip-rule="evenodd" d="M44.85 27.521C44.9988 27.2977 45.1183 27.0321 45.1982 26.7345L46.1123 22.4842C46.1638 22.1764 46.1638 21.921 46.0922 21.7032C46.0541 21.5094 45.9521 21.3094 45.7832 21.1665C45.6143 21.0174 45.366 20.9192 45.0097 20.9192C44.6486 20.9192 44.352 21.0174 44.1228 21.1665C43.8942 21.3094 43.7366 21.5094 43.5867 21.7032C43.4266 21.9408 43.3179 22.1952 43.2473 22.4842L42.3342 26.7345C42.273 27.0423 42.273 27.2977 42.344 27.521C42.3816 27.721 42.4728 27.9087 42.6412 28.0517C42.8189 28.2185 43.0794 28.2994 43.4266 28.2994C43.7737 28.2994 44.0652 28.2185 44.3015 28.0517C44.5302 27.9087 44.7001 27.721 44.85 27.521ZM44.9885 22.0329C45.056 22.1352 45.0771 22.2842 45.037 22.4842L44.1228 26.7345C44.0924 26.8545 44.0554 26.943 44.024 27.0026C43.9555 27.1455 43.8339 27.2656 43.648 27.2656C43.5563 27.2656 43.4961 27.2381 43.4559 27.1852C43.3761 27.083 43.356 26.9232 43.4075 26.7345L44.3216 22.4842C44.3427 22.3829 44.3721 22.2954 44.4123 22.216C44.4828 22.0878 44.6023 21.9525 44.7903 21.9525C44.8799 21.9525 44.9473 21.9805 44.9885 22.0329Z" fill="white"/>
<path fill-rule="evenodd" clip-rule="evenodd" d="M50.2694 20.9995H49.1951L47.6418 28.219H48.7161L49.3331 25.3332C49.8018 25.3332 50.2977 25.205 50.7262 24.8591C51.1536 24.5161 51.5007 23.9855 51.6908 23.1603C51.8788 22.334 51.751 21.7927 51.4606 21.4498C51.1747 21.1069 50.736 20.9995 50.2694 20.9995ZM50.2694 24.0247C50.1185 24.1926 49.8903 24.248 49.5613 24.248L50.0299 22.0786C50.36 22.0786 50.5562 22.1671 50.6366 22.334C50.7159 22.5218 50.686 22.797 50.5954 23.1994C50.5047 23.6019 50.4275 23.8664 50.2694 24.0247Z" fill="white"/>
<path fill-rule="evenodd" clip-rule="evenodd" d="M53.6107 20.9995L50.9569 28.2185H52.0013L52.5081 26.743H53.5432L53.4346 28.2185H54.4764L54.9255 20.9995H53.6107ZM53.8322 23.1603L53.8219 23.3475L53.6416 25.6278H52.9067L53.7003 23.3475L53.7724 23.1603H53.8322Z" fill="white"/>
<path fill-rule="evenodd" clip-rule="evenodd" d="M57.2743 25.173L57.1837 28.2185H58.259L58.3172 24.7217C58.7848 24.4475 59.1139 23.7957 59.273 23.0799C59.5625 21.7026 59.1721 20.9995 57.8918 20.9995H56.8175L55.2643 28.2185H56.3396L56.9864 25.173H57.2743ZM57.743 24.0328C57.5529 24.1804 57.3557 24.1921 57.2038 24.1921L57.6637 22.0517C57.8104 22.0517 58.0092 22.0517 58.14 22.1946C58.2688 22.3427 58.3363 22.6093 58.2276 23.1201C58.1189 23.6304 57.9289 23.8848 57.743 24.0328Z" fill="white"/>
<path d="M59.892 22.0873L60.1326 20.999H63.2354L62.997 22.0873H61.9835L60.6687 28.2185H59.5964L60.9102 22.0873H59.892Z" fill="white"/>
<path d="M65.0956 22.9333C65.143 22.6978 65.194 22.4347 65.1641 22.2261C65.1337 22.0323 65.0554 21.8929 64.8855 21.8929C64.6069 21.9026 64.458 22.1854 64.3695 22.6087C64.319 22.8565 64.3592 23.1119 64.4678 23.3831C64.5775 23.6614 64.7052 23.9463 64.8541 24.248C65.0441 24.6143 65.194 24.9903 65.3129 25.3515C65.4237 25.7143 65.4726 26.0877 65.3835 26.4805C65.2728 26.9618 65.1157 27.4049 64.8077 27.7478C64.4961 28.0913 64.0996 28.2988 63.5043 28.2988C62.8162 28.2988 62.4784 28.0429 62.3496 27.6491C62.2008 27.2569 62.278 26.7425 62.3888 26.1976L63.4631 26.0969C63.3956 26.4006 63.3446 26.7074 63.3745 26.9333C63.4049 27.1658 63.4831 27.325 63.7123 27.325C64.0296 27.325 64.2103 26.9913 64.319 26.5278C64.3695 26.2933 64.319 26.018 64.2103 25.7351C64.1794 25.6644 64.1501 25.5871 64.1197 25.5153C64.0888 25.4487 64.0605 25.3724 64.0296 25.3006C63.958 25.1536 63.8807 24.9989 63.803 24.83C63.7216 24.6616 63.6402 24.4958 63.5614 24.3085C63.3956 23.9376 63.305 23.5627 63.2741 23.1877C63.2447 22.9995 63.2741 22.8061 63.3142 22.6087C63.3956 22.2155 63.5717 21.7922 63.8807 21.4696C64.1702 21.1562 64.5688 20.9278 65.0755 20.9191C65.7404 20.9069 66.0494 21.175 66.1792 21.5586C66.2976 21.9519 66.2595 22.4347 66.1689 22.8372L65.0956 22.9333Z" fill="white"/>
<path d="M79.2953 17.9377C79.2953 18.3839 79.6615 18.7426 80.11 18.7426H86.8251C87.2737 18.7426 87.6398 18.3839 87.6398 17.9377C87.6398 17.4935 87.2737 17.1328 86.8251 17.1328H80.11C79.6615 17.1328 79.2953 17.4935 79.2953 17.9377Z" fill="white"/>
<path fill-rule="evenodd" clip-rule="evenodd" d="M93.1884 14.2793C90.6819 14.2793 88.6528 16.2833 88.6528 18.7545C88.6528 21.2291 90.6819 23.2352 93.1884 23.2352C95.6919 23.2352 97.724 21.2291 97.724 18.7545C97.724 16.2793 95.6919 14.2793 93.1884 14.2793ZM96.0946 18.7545C96.0884 20.3428 94.7906 21.6224 93.1884 21.6255C91.5822 21.6224 90.2854 20.3428 90.2823 18.7545C90.2854 17.1717 91.5822 15.8891 93.1884 15.8891C94.7906 15.8891 96.0884 17.1717 96.0946 18.7545Z" fill="white"/>
<path fill-rule="evenodd" clip-rule="evenodd" d="M73.7461 14.2793C71.2447 14.2793 69.2125 16.2793 69.2125 18.7545C69.2125 21.2291 71.2447 23.2352 73.7461 23.2352C76.2505 23.2352 78.2817 21.2291 78.2817 18.7545C78.2817 16.2793 76.2505 14.2793 73.7461 14.2793ZM76.6522 18.7545C76.6491 20.3428 75.3513 21.6224 73.7461 21.6255C72.1439 21.6224 70.8461 20.3428 70.842 18.7545C70.8461 17.1717 72.1439 15.8891 73.7461 15.8891C75.3513 15.8891 76.6491 17.1717 76.6522 18.7545Z" fill="white"/>
<path d="M101.547 14.9808C101.363 14.6074 101.118 14.2263 100.811 13.8422C100.202 13.0688 99.3689 12.267 98.3817 11.5288L87.0754 3.07758C85.8945 2.19384 84.3134 1.44646 82.6556 0.894948C80.9973 0.346492 79.2793 0.00103561 77.7966 1.80617e-05H71.8237C71.2947 -0.00201703 70.7787 0.167913 70.4023 0.515404C70.0181 0.856281 69.811 1.36607 69.8121 1.87179C69.8121 2.11244 69.8553 2.35309 69.9346 2.5856L72.4602 10.1337C72.4916 10.2162 72.4998 10.2828 72.4998 10.3352C72.4968 10.4431 72.4715 10.4965 72.3989 10.5769C72.3268 10.6542 72.1811 10.7468 71.9534 10.7951C68.7852 11.4901 66.3075 13.976 65.6586 17.1243H2.14261C1.69508 17.1243 1.32788 17.487 1.32788 17.9291C1.32788 18.3794 1.69508 18.7391 2.14261 18.7391H66.2632C66.7118 18.7864 67.1145 18.4705 67.1645 18.0273C67.4755 15.2321 69.5788 12.9645 72.3088 12.3662C72.7955 12.2619 73.2399 12.0406 73.5798 11.6896C73.9218 11.3411 74.1303 10.846 74.1293 10.3352C74.1293 10.0996 74.0881 9.85849 74.0083 9.62598L71.4827 2.0809C71.4523 1.99237 71.4415 1.92368 71.4415 1.87179C71.4477 1.76291 71.4734 1.73595 71.5049 1.69728C71.543 1.66421 71.6244 1.61079 71.8237 1.60977H77.7966C79.0177 1.60774 80.6142 1.91147 82.135 2.42126C83.6614 2.92546 85.122 3.63163 86.0917 4.35816L97.4006 12.8094C98.7262 13.7933 99.7336 14.9498 100.08 15.6753C100.195 15.9078 100.231 16.0899 100.228 16.1393L99.4132 17.5354C99.1902 17.92 99.3221 18.412 99.713 18.6348C99.8417 18.7071 99.9808 18.7432 100.12 18.7432C100.401 18.7432 100.673 18.5997 100.825 18.3407L101.66 16.9126C101.806 16.6623 101.858 16.3906 101.858 16.1454C101.855 15.7292 101.73 15.3583 101.547 14.9808Z" fill="white"/>
</svg>
