<svg width="107" height="36" viewBox="0 0 107 36" fill="none" xmlns="http://www.w3.org/2000/svg">
<path d="M5.58612 7.26136C5.58612 6.6797 5.46369 6.49456 5.46369 6.28062C5.46369 5.97256 5.83304 5.7581 6.26156 5.7581C7.27549 5.7581 7.98127 6.37216 7.98127 7.10862V18.4954C7.98127 21.4407 8.96434 22.6071 10.7746 22.6071C12.4943 22.6071 13.784 21.2571 13.784 19.4767C13.784 16.715 11.6661 15.887 9.73186 15.887C9.17937 15.887 8.65671 13.584 9.57701 13.584C11.0215 13.584 14.551 12.6336 14.551 8.18348C14.551 5.85016 13.0473 3.4577 9.27093 3.4577C4.32784 3.4577 2.33291 6.71056 2.33291 10.454C2.33291 13.1546 3.43789 14.107 3.49962 14.1986C3.83811 14.1065 3.96054 14.321 3.96054 14.6285C3.96054 15.1814 3.13232 17.2066 2.24083 16.5314C1.75007 16.0706 0 14.2289 0 10.6392C0 4.89976 3.77638 1.15576 9.24007 1.15576C13.8755 1.15576 16.9147 3.76422 16.9147 8.12279C16.9147 11.4677 15.195 13.5238 12.9552 14.7206C14.7346 15.2431 16.1786 16.7767 16.1786 19.416C16.1786 22.4852 13.8452 24.725 10.8055 24.725C6.78473 24.725 5.58663 22.1777 5.58663 18.4023V7.26136H5.58612Z" fill="white"/>
<path fill-rule="evenodd" clip-rule="evenodd" d="M22.7124 22.1772C21.1151 22.1772 20.2868 21.3184 19.8563 20.2744C22.8348 19.3847 24.3997 16.6841 24.3997 14.412C24.3997 12.5724 23.3574 11.314 21.6372 11.314C19.2745 11.314 16.941 14.2289 16.941 18.1262C16.941 21.9628 19.5811 24.202 22.3744 24.202C26.8864 24.202 28.1148 20.4904 28.3293 18.6179C28.4533 17.543 26.7336 16.9289 26.4579 18.3098C26.0885 20.1823 25.1054 22.1772 22.7124 22.1772ZM22.0066 14.4429C22.0066 16.2845 21.023 17.8819 19.489 18.5875C19.489 18.4945 19.4814 18.402 19.4738 18.3097C19.4662 18.2177 19.4586 18.126 19.4586 18.0341C19.3974 16.7453 19.8563 13.3701 21.362 13.3701C21.7602 13.3701 22.0066 13.7681 22.0066 14.4429Z" fill="white"/>
<path d="M37.2031 18.8627C37.3255 18.2183 37.6336 17.9431 37.9397 17.9431C38.4315 17.9431 39.0149 18.6179 39.0149 19.2011C39.0149 19.2319 39.0149 19.2931 38.984 19.4155C38.4619 21.4408 37.2339 24.2025 34.5939 24.2025C33.5188 24.2025 32.6905 23.682 32.2296 22.9445C31.6169 23.6501 30.7563 24.2025 29.5896 24.2025C27.196 24.2025 25.9372 22.1772 25.9372 19.5688C25.9372 14.4429 29.4975 11.314 33.243 11.314C34.0713 11.314 34.6546 11.8036 34.6546 12.6033C34.6546 13.1237 34.5625 13.3089 34.2564 13.3089C33.9797 13.3089 33.6731 13.2477 33.3655 13.2477C31.0336 13.2477 28.2999 15.2426 28.2999 19.6608C28.2999 21.2572 28.9749 22.1777 30.05 22.1777C30.8782 22.1777 31.4317 21.4408 31.7697 20.5824V15.8567C31.7697 15.2735 31.6473 15.0883 31.6473 14.8739C31.6473 14.5673 32.0151 14.3513 32.4452 14.3513C33.4575 14.3513 34.1026 14.9654 34.1026 15.7019V20.766C34.1026 21.4408 34.4103 22.1777 35.1464 22.1777C36.3743 22.1772 36.9273 20.2132 37.2031 18.8627Z" fill="white"/>
<path d="M43.2537 22.0239C42.5165 23.3127 41.5335 24.2327 40.1831 24.2327C38.1264 24.2327 36.9294 22.4847 36.9294 19.815C36.9294 16.5616 38.0344 12.9087 38.0344 12.9087C38.2489 12.3867 38.0344 11.7726 39.661 11.7726C41.1646 11.7726 40.2747 13.0007 40.1522 13.4615C39.5998 15.7316 39.2628 17.0816 39.2628 19.6602C39.2628 21.3183 39.7834 22.2075 40.6744 22.2075C41.9028 22.2075 42.8231 20.2126 43.1925 18.0644V13.1231C43.1925 12.2339 42.8843 12.1722 42.8843 11.9578C42.8843 11.7418 43.4368 11.6199 43.8674 11.6199C44.8798 11.6199 45.5244 12.2334 45.5244 12.9699V20.7649C45.5244 21.0406 45.5244 22.1766 46.3222 22.1766C47.5507 22.1766 48.1032 20.2126 48.3804 18.862C48.5029 18.2176 48.809 17.9425 49.1171 17.9425C49.6068 17.9425 50.1907 18.6172 50.1907 19.2004C50.1907 19.2313 50.1907 19.2925 50.1598 19.4149C49.6068 21.4402 48.4113 24.2019 45.7713 24.2019C44.388 24.2024 43.4677 23.2515 43.2537 22.0239Z" fill="white"/>
<path d="M48.506 9.01161V3.82555C48.506 2.93635 48.1979 2.87463 48.1979 2.65863C48.1979 2.44418 48.7509 2.32178 49.1809 2.32178C50.1933 2.32178 50.8379 2.93583 50.8379 3.67229V9.04246C52.7109 9.04246 54.8596 9.01161 56.9477 8.92006C57.8068 8.00001 57.53 10.9453 56.7321 10.9757C54.2758 11.0369 52.466 11.0369 50.8379 11.0369V20.7656C50.8379 21.7484 51.2376 22.1773 51.8822 22.1773C53.1106 22.1773 53.6631 20.2133 53.9393 18.8627C54.0618 18.2183 54.3694 17.9432 54.676 17.9432C55.1673 17.9432 55.7511 18.6179 55.7511 19.2011C55.7511 19.232 55.7511 19.2932 55.7203 19.4156C55.1976 21.4409 53.9702 24.2026 51.3297 24.2026C49.6712 24.2026 48.506 23.2218 48.506 20.7965V11.0369C47.1556 11.0369 46.3866 10.9757 46.3866 10.9757C45.405 10.9757 44.8526 8.92006 45.742 8.92006C45.7415 8.92006 46.8475 8.98126 48.506 9.01161Z" fill="white"/>
<path fill-rule="evenodd" clip-rule="evenodd" d="M66.7711 19.2012C66.7711 18.618 66.1877 17.9432 65.6959 17.9432C65.3899 17.9432 65.145 18.2184 64.9593 18.8628C64.3456 20.9801 63.3636 22.5152 62.2581 23.7433V12.9706C62.2581 12.2341 61.6135 11.6206 60.6011 11.6206C60.171 11.6206 59.8017 11.8345 59.8017 12.1426C59.8017 12.2235 59.8193 12.3 59.8413 12.3952C59.8776 12.5523 59.9257 12.7604 59.9257 13.1239V18.0651C59.5568 20.2133 58.6365 22.2082 57.4081 22.2082C56.5171 22.2082 55.9965 21.319 55.9965 19.6609C55.9965 17.1128 56.325 15.7644 56.8664 13.5423C56.8729 13.5157 56.8794 13.4891 56.8859 13.4623C56.9089 13.3753 56.9593 13.2611 57.0159 13.1329C57.2591 12.5818 57.6158 11.7733 56.3941 11.7733C55.0685 11.7733 54.9661 12.1814 54.8573 12.6151C54.8327 12.7133 54.8077 12.8129 54.7681 12.9094C54.7681 12.9094 53.662 16.5624 53.662 19.8157C53.662 22.4854 54.8601 24.2335 56.9168 24.2335C58.2368 24.2335 59.1875 23.3443 59.9257 22.1167V26.0139L59.9235 26.0159C57.8991 27.7955 56.1189 29.3605 56.1189 32.4589C56.1189 34.423 57.3474 35.9875 59.0655 35.9875C60.632 35.9875 62.2581 34.8529 62.2581 31.6304V26.3215C63.9171 24.8779 65.6959 23.0686 66.7402 19.5077C66.7711 19.3848 66.7711 19.232 66.7711 19.2012ZM59.9262 28.3467V31.6304C59.9262 31.6814 59.9271 31.7419 59.9282 31.8099C59.9391 32.5209 59.9628 34.0537 59.0655 34.0532C58.5758 34.0532 58.2677 33.3173 58.2677 32.3664C58.2677 30.5247 58.9431 29.3588 59.9262 28.3467Z" fill="white"/>
<path d="M69.4224 7.26136C69.4224 6.6797 69.3 6.49456 69.3 6.28062C69.3 5.97256 69.6693 5.7581 70.0978 5.7581C71.1118 5.7581 71.8176 6.37216 71.8176 7.10862V18.4954C71.8176 21.4407 72.8006 22.6071 74.6109 22.6071C76.3306 22.6071 77.6202 21.2571 77.6202 19.4767C77.6202 16.715 75.5024 15.887 73.5681 15.887C73.0156 15.887 72.493 13.584 73.4133 13.584C74.8578 13.584 78.3872 12.6336 78.3872 8.18348C78.3872 5.85016 76.8836 3.4577 73.1072 3.4577C68.1641 3.4577 66.1692 6.71056 66.1692 10.454C66.1692 13.1546 67.2742 14.107 67.3359 14.1986C67.6744 14.1065 67.7968 14.321 67.7968 14.6285C67.7968 15.1814 66.9686 17.2066 66.0771 16.5314C65.5869 16.0706 63.8368 14.2289 63.8368 10.6392C63.8368 4.89976 67.6132 1.15576 73.0769 1.15576C77.7123 1.15576 80.7515 3.76422 80.7515 8.12279C80.7515 11.4677 79.0318 13.5238 76.792 14.7206C78.5714 15.2431 80.0154 16.7767 80.0154 19.416C80.0154 22.4852 77.682 24.725 74.6422 24.725C70.6215 24.725 69.4234 22.1777 69.4234 18.4023V7.26136H69.4224Z" fill="white"/>
<path fill-rule="evenodd" clip-rule="evenodd" d="M90.4469 22.2075C92.5344 22.2075 93.7932 20.8267 94.1605 19.1701C94.5602 17.4514 92.5344 17.5738 92.411 18.2789C92.2268 19.4761 91.5195 20.4898 90.2 20.4898C89.9855 20.4898 89.8018 20.4898 89.5858 20.4286C89.8939 19.3846 90.0163 18.2485 90.0163 17.1125C90.0163 14.1368 88.8496 11.9583 87.4072 11.9583C85.7502 11.9583 84.9205 13.6143 84.9205 15.548C84.9205 17.7574 85.689 19.7837 87.1315 21.0103C86.7323 21.7174 86.1793 22.1772 85.3202 22.1772C84.1231 22.1772 83.1107 20.8879 83.1107 18.3097C83.1107 15.4737 83.9134 14.2954 84.4196 13.5521C84.4555 13.4995 84.4898 13.4491 84.5223 13.4004C85.3202 12.8779 84.7065 11.2522 83.9086 11.2522C83.2332 11.2522 80.7768 13.9836 80.7768 18.4949C80.7768 21.5626 82.1585 24.2019 85.259 24.2019C87.009 24.2019 88.1747 23.3122 88.9433 21.9931C89.4032 22.1463 89.8944 22.2075 90.4469 22.2075ZM87.8074 17.6047C87.8074 18.0649 87.7765 18.5263 87.7158 19.0159C87.0095 18.0958 86.5486 16.807 86.5486 15.4261C86.5486 14.4737 86.7328 13.9841 87.0708 13.9841C87.7158 13.9841 87.8074 15.5177 87.8074 17.6047Z" fill="white"/>
<path d="M92.322 18.71C92.6296 17.5739 93.1214 14.3509 93.1214 12.7865C93.1214 11.7121 93.6435 11.3141 94.9316 11.3141C95.4229 11.3141 96.1596 11.4977 96.5593 12.1421C97.2959 13.3393 97.9096 14.5361 98.6766 16.1617C99.7209 14.5664 100.55 13.0925 101.072 12.1112C101.347 11.5589 101.594 11.2832 101.931 11.2832C102.545 11.2832 103.22 12.1724 103.22 12.8785C103.22 13.0621 103.189 13.2169 103.098 13.3393L99.6293 18.279C100.795 20.7651 101.625 22.2987 102.76 22.2987C103.988 22.2987 104.51 20.2122 104.787 18.8617C104.909 18.2173 105.215 17.9422 105.524 17.9422C106.013 17.9422 106.597 18.6169 106.597 19.2001C106.597 19.231 106.597 19.2922 106.566 19.4146C106.044 21.4398 104.97 24.2015 102.483 24.2015C100.641 24.2015 99.5049 23.1596 98.1854 20.3655L96.1287 23.282C95.7002 23.9567 95.3005 24.2015 94.7475 24.2015C94.0417 24.2015 93.1517 23.7731 93.1517 23.1899C93.1517 22.7903 93.4882 22.9739 94.4712 21.8394C95.4224 20.7342 96.3746 19.5066 97.2337 18.2785C96.5891 16.8061 95.8833 15.4247 95.0551 14.0135C94.9939 15.3635 94.5021 18.0949 94.0412 19.5678C93.643 20.8577 92.0462 19.754 92.322 18.71Z" fill="white"/>
<path fill-rule="evenodd" clip-rule="evenodd" d="M44.3314 1.25969C44.3314 1.25969 43.3674 -0.643166 39.9043 0.228549C37.3368 0.874492 33.8665 2.75369 32.6952 3.41249C32.6823 3.34975 32.6288 3.30141 32.563 3.30141H30.4981C30.4302 3.30141 30.3772 3.34975 30.3659 3.41249C29.1925 2.75369 25.7227 0.874492 23.1568 0.229063C19.6916 -0.642651 18.7276 1.26021 18.7276 1.26021C17.8561 2.93421 18.4765 3.92215 19.0033 4.47141C19.5301 5.02221 20.7472 6.28375 23.9819 6.28375H28.6997L24.3739 9.07632C24.3096 9.11643 24.2916 9.20181 24.3338 9.26455L25.3508 10.7791C25.3945 10.8419 25.4799 10.8578 25.5427 10.8161L29.9261 7.87546L30.3597 6.28323V8.02512C30.3597 8.10226 30.4209 8.16398 30.4986 8.16398H32.563C32.6381 8.16398 32.6998 8.10278 32.6998 8.02512V6.28323L33.1355 7.87546L37.5189 10.8161C37.5817 10.8578 37.6671 10.8419 37.7088 10.7791L38.7263 9.26455C38.768 9.20181 38.7505 9.11643 38.6877 9.07632L34.3604 6.28375H39.0776C42.3123 6.28375 43.5289 5.02221 44.0562 4.47141C44.5845 3.92163 45.2034 2.93369 44.3314 1.25969ZM20.9766 4.24203C20.0826 4.24203 19.5306 3.85221 19.5306 3.85221C19.5306 3.85221 18.9812 3.55392 18.8716 2.92238C18.8716 2.92238 18.9637 3.37495 19.5198 3.67632C19.5069 3.32661 19.5306 2.51455 19.9679 1.83312C19.9679 1.83312 20.5641 0.70992 22.2612 0.70992C23.3168 0.70992 26.9964 3.17541 28.1775 3.98541L29.765 4.24152H20.9766V4.24203ZM42.0829 4.24203C42.978 4.24203 43.5289 3.85221 43.5289 3.85221C43.5289 3.85221 44.0784 3.55392 44.1879 2.92289C44.1879 2.92289 44.0958 3.37546 43.5403 3.67683C43.5531 3.32712 43.5289 2.51506 43.0922 1.83363C43.0922 1.83363 42.496 0.710434 40.7989 0.710434C39.7443 0.710434 36.0636 3.17592 34.882 3.98592L33.2945 4.24203H42.0829Z" fill="white"/>
<path d="M31.5311 6.58007C31.7389 6.15476 32.9781 5.77162 32.9781 4.85773C32.9781 4.38047 32.5913 3.99219 32.1144 3.99219C31.8901 3.99219 31.6838 4.0791 31.5306 4.22259C31.3757 4.0791 31.1699 3.99219 30.9457 3.99219C30.4683 3.99219 30.0814 4.38047 30.0814 4.85773C30.0824 5.77162 31.3217 6.15476 31.5311 6.58007Z" fill="white"/>
</svg>
