<svg width="119" height="30" viewBox="0 0 119 30" fill="none" xmlns="http://www.w3.org/2000/svg">
<path d="M39.521 7.67532C39.0641 7.09496 38.3134 6.77023 37.573 6.77023C35.7626 6.77023 34.5664 8.19216 34.5664 9.99219C34.5664 11.6601 35.6923 13.0815 37.573 13.0815C38.4955 13.0815 39.2028 12.6765 39.6819 12.0168L40.6033 12.7004C40.3638 13.0246 39.3957 14.0862 37.5492 14.0862C34.9871 14.0862 33.4023 11.9828 33.4023 9.99219C33.4023 7.52896 35.1252 5.76196 37.6066 5.76196C38.6683 5.76196 39.7833 6.15378 40.4321 6.99485L39.521 7.67532Z" fill="white"/>
<path fill-rule="evenodd" clip-rule="evenodd" d="M44.6809 5.96313H41.8435V13.8854H42.9388V10.3941H44.1568L46.2087 13.8854H47.5731L45.2852 10.2732C46.5062 10.1375 47.2668 9.18815 47.2668 8.18091C47.2668 7.1823 46.7427 5.96313 44.6809 5.96313ZM44.3746 9.45343H42.9388V6.90381H44.3746C45.2397 6.90381 46.1073 7.10658 46.1073 8.18091C46.1073 9.25269 45.2397 9.45343 44.3746 9.45343Z" fill="white"/>
<path fill-rule="evenodd" clip-rule="evenodd" d="M52.4723 5.76245C50.0121 5.76245 48.2685 7.57366 48.2685 9.92662C48.2685 12.274 50.0121 14.0862 52.4723 14.0862C54.9299 14.0862 56.6761 12.274 56.6761 9.92662C56.6761 7.57366 54.9299 5.76245 52.4723 5.76245ZM52.4723 6.77021C54.3163 6.77021 55.512 8.19163 55.512 9.92661C55.512 11.6596 54.3163 13.081 52.4723 13.081C50.6262 13.081 49.4326 11.6596 49.4326 9.92661C49.4326 8.19163 50.6262 6.77021 52.4723 6.77021Z" fill="white"/>
<path d="M58.2582 5.96313H63.3292V6.97089H59.3536V9.45343H63.0539V10.4627H59.3536V13.8854H58.2582V5.96313Z" fill="white"/>
<path d="M66.7373 6.97089H64.142V5.96313H70.4299V6.97089H67.8315V13.8849H66.7373V6.97089Z" fill="white"/>
<path d="M72.5217 8.71451H71.6318V5.96313H72.5217V8.71451Z" fill="white"/>
<path d="M74.154 12.2313C74.5405 12.8106 75.2121 13.0815 75.862 13.0815C76.578 13.0815 77.469 12.6333 77.469 11.7607C77.469 9.93576 73.4902 11.0665 73.4902 7.97971C73.4902 7.0487 74.2886 5.76245 76.2257 5.76245C77.1021 5.76245 77.9481 5.94083 78.5514 6.6706L77.6614 7.46389C77.3872 7.0487 76.8533 6.77021 76.2257 6.77021C75.0181 6.77021 74.6544 7.48778 74.6544 7.97971C74.6544 9.98048 78.63 8.78622 78.63 11.6382C78.63 13.1694 77.3758 14.0862 75.8257 14.0862C74.7894 14.0862 73.8007 13.7396 73.2538 12.991L74.154 12.2313Z" fill="white"/>
<path fill-rule="evenodd" clip-rule="evenodd" d="M37.4235 15.7344H36.4352L32.8802 23.6536H34.1572L34.9545 21.6976H38.7935L39.6012 23.6536H40.8786L37.4235 15.7344ZM36.8911 17.1223L38.3936 20.7564H35.3399L36.8678 17.1223H36.8911Z" fill="white"/>
<path d="M47.2533 17.4463C46.7949 16.8655 46.0452 16.5382 45.3023 16.5382C43.4914 16.5382 42.2973 17.9601 42.2973 19.7617C42.2973 21.4285 43.4231 22.8495 45.3023 22.8495C46.2263 22.8495 46.932 22.4475 47.4096 21.7878L48.3342 22.4683C48.0931 22.7951 47.1266 23.8542 45.2805 23.8542C42.7163 23.8542 41.1342 21.7543 41.1342 19.7617C41.1342 17.2989 42.8545 15.533 45.3359 15.533C46.3971 15.533 47.5126 15.9258 48.1634 16.7653L47.2533 17.4463Z" fill="white"/>
<path d="M55.0391 17.4463C54.5801 16.8655 53.832 16.5382 53.0885 16.5382C51.2776 16.5382 50.0835 17.9601 50.0835 19.7617C50.0835 21.4285 51.2098 22.8495 53.0885 22.8495C54.0125 22.8495 54.7188 22.4475 55.1963 21.7878L56.1209 22.4683C55.8808 22.7951 54.9128 23.8542 53.0657 23.8542C50.5031 23.8542 48.9209 21.7543 48.9209 19.7617C48.9209 17.2989 50.6423 15.533 53.1226 15.533C54.1838 15.533 55.2988 15.9258 55.9497 16.7653L55.0391 17.4463Z" fill="white"/>
<path fill-rule="evenodd" clip-rule="evenodd" d="M60.9089 15.5334C58.4471 15.5334 56.703 17.3462 56.703 19.6946C56.703 22.0424 58.4471 23.8547 60.9089 23.8547C63.3675 23.8547 65.1106 22.0424 65.1106 19.6946C65.1106 17.3462 63.3675 15.5334 60.9089 15.5334ZM60.9089 16.5382C62.7534 16.5382 63.9475 17.9601 63.9475 19.6946C63.9475 21.4285 62.7534 22.8494 60.9089 22.8494C59.0613 22.8494 57.8666 21.4285 57.8666 19.6946C57.8666 17.9601 59.0613 16.5382 60.9089 16.5382Z" fill="white"/>
<path d="M67.665 15.7344V20.5892C67.665 21.5736 68.1668 22.8496 69.6931 22.8496C71.2163 22.8496 71.7187 21.5736 71.7187 20.5892V15.7344H72.8125V20.7564C72.8125 22.594 71.4574 23.8549 69.6931 23.8549C67.9242 23.8549 66.5707 22.594 66.5707 20.7564V15.7344H67.665Z" fill="white"/>
<path d="M74.7692 15.7344H76.2045L80.6489 22.2464H80.6701V15.7344H81.7644V23.6536H80.3746L75.8878 17.1446H75.8635V23.6536H74.7692V15.7344Z" fill="white"/>
<path d="M85.5155 16.7396H82.9197V15.7344H89.206V16.7396H86.6108V23.6536H85.5155V16.7396Z" fill="white"/>
<path fill-rule="evenodd" clip-rule="evenodd" d="M93.1589 15.7344H92.1691L88.6125 23.6536H89.89L90.6883 21.6976H94.5263L95.334 23.6536H96.6109L93.1589 15.7344ZM92.6234 17.1223L94.1274 20.7564H91.0748L92.6001 17.1223H92.6234Z" fill="white"/>
<path d="M97.7021 15.7344H99.1373L103.58 22.2464H103.601V15.7344H104.695V23.6536H103.305L98.8207 17.1446H98.7964V23.6536H97.7021V15.7344Z" fill="white"/>
<path d="M108.448 16.7396H105.851V15.7344H112.138V16.7396H109.543V23.6536H108.448V16.7396Z" fill="white"/>
<path d="M113.618 22.0003C114.005 22.5816 114.679 22.8495 115.328 22.8495C116.043 22.8495 116.934 22.4023 116.934 21.5287C116.934 19.7042 112.957 20.834 112.957 17.7482C112.957 16.8197 113.755 15.533 115.692 15.533C116.569 15.533 117.413 15.7113 118.016 16.4386L117.127 17.2319C116.852 16.8197 116.317 16.5382 115.692 16.5382C114.485 16.5382 114.119 17.2568 114.119 17.7482C114.119 19.749 118.097 18.5542 118.097 21.4082C118.097 22.9404 116.841 23.8542 115.292 23.8542C114.256 23.8542 113.267 23.5076 112.718 22.7595L113.618 22.0003Z" fill="white"/>
<path d="M30.1582 14.8099C30.1582 22.9913 23.4052 29.6208 15.0768 29.6208C6.75299 29.6208 0 22.9913 0 14.8099C0 6.62993 6.75299 0 15.0768 0C23.4052 0 30.1582 6.62993 30.1582 14.8099Z" fill="white"/>
<path d="M20.8514 25.7387L7.06909 17.9221V11.6982L20.8514 19.5133V25.7387Z" fill="white"/>
<path d="M20.8514 3.88159L7.06909 11.6982V17.9221L20.8514 10.1065V3.88159Z" fill="white"/>
</svg>
