<svg width="117" height="43" viewBox="0 0 117 43" fill="none" xmlns="http://www.w3.org/2000/svg">
<path d="M65.3571 26.4539L65.9045 30.529L67.7987 26.4539H68.9527L66.3045 31.8978H65.1056L64.2696 26.4539H65.3571Z" fill="white"/>
<path fill-rule="evenodd" clip-rule="evenodd" d="M69.3094 26.5212C69.1908 26.5212 69.1166 26.5953 69.1022 26.7072L69.0053 27.3683C68.9913 27.4724 69.0496 27.5393 69.1532 27.5393H69.9304C70.034 27.5393 70.1077 27.4802 70.1227 27.3683L70.2268 26.7072C70.2412 26.6031 70.1969 26.5212 70.0856 26.5212H69.3094ZM69.9902 27.9485H68.9542L68.3326 31.8973H69.3686L69.9902 27.9485Z" fill="white"/>
<path d="M70.7268 27.9484H71.5994L71.6803 28.4468C71.9988 28.1784 72.4055 27.9116 72.8936 27.9116C73.0637 27.9116 73.2266 27.9116 73.3229 27.9562L73.1673 28.9602C73.0637 28.9529 72.8271 28.9379 72.6044 28.9379C72.1761 28.9379 71.8504 29.0125 71.5324 29.3767L71.1396 31.8977H70.1036L70.7268 27.9484Z" fill="white"/>
<path fill-rule="evenodd" clip-rule="evenodd" d="M76.9654 28.3354C76.5876 27.9712 75.6928 27.8443 75.13 27.8744C74.4352 27.9117 73.5842 28.0604 73.2734 29.6887C72.9621 31.318 73.5399 31.9423 74.3022 31.9423C74.7754 31.9423 75.3011 31.7267 75.4933 31.4812L75.6485 31.8899H76.4479L76.9654 28.3354ZM75.582 30.6854C75.3454 30.916 75.1083 31.0569 74.679 31.0569C74.2203 31.0569 74.1687 30.6253 74.28 29.8819C74.4357 28.8851 74.746 28.781 75.0789 28.7147C75.2934 28.6624 75.634 28.6997 75.8629 28.781L75.582 30.6854Z" fill="white"/>
<path d="M78.0272 26.0745H79.0631L78.3895 30.3278C78.2926 30.9454 78.4039 31.02 78.6189 31.1013C78.6189 31.1013 79.0183 31.25 79.0477 31.25L78.9508 31.8971H78.2854C77.5824 31.8971 77.1685 31.5028 77.3303 30.4921L78.0272 26.0745Z" fill="white"/>
<path d="M82.6066 26.4539H84.0194L84.3456 30.1726L85.8172 26.4539H87.2753L86.9268 31.8978H85.8981L86.1578 28.2614L84.6925 31.8978H83.5163L83.1834 28.2614L82.3108 31.8978H81.2681L82.6066 26.4539Z" fill="white"/>
<path fill-rule="evenodd" clip-rule="evenodd" d="M91.3842 28.3354C91.0064 27.9712 90.1117 27.8443 89.5488 27.8744C88.8541 27.9117 88.0026 28.0604 87.6913 29.6887C87.381 31.318 87.9583 31.9423 88.7211 31.9423C89.1932 31.9423 89.72 31.7267 89.9112 31.4812L90.0663 31.8899H90.8668L91.3842 28.3354ZM89.9998 30.6854C89.7633 30.916 89.5267 31.0569 89.0978 31.0569C88.6386 31.0569 88.5876 30.6253 88.6984 29.8819C88.8546 28.8851 89.1649 28.781 89.4978 28.7147C89.7122 28.6624 90.0534 28.6997 90.2818 28.781L89.9998 30.6854Z" fill="white"/>
<path d="M92.1862 27.9484H93.0599L93.1403 28.4468C93.4583 28.1784 93.8649 27.9116 94.3536 27.9116C94.5247 27.9116 94.6865 27.9116 94.7834 27.9562L94.6273 28.9602C94.5247 28.9529 94.2871 28.9379 94.0644 28.9379C93.6356 28.9379 93.3093 29.0125 92.9923 29.3767L92.5996 31.8977H91.5646L92.1862 27.9484Z" fill="white"/>
<path d="M95.4416 26.0818H96.4776L95.9519 29.3845C96.5297 29.1757 97.2322 28.5882 97.4167 27.9489H98.5202C98.2465 28.9229 97.5358 29.5182 97.0765 29.756L98.2826 31.8977H97.1291L96.1312 30.0834L95.8493 30.0906L95.5602 31.8977H94.5242L95.4416 26.0818Z" fill="white"/>
<path fill-rule="evenodd" clip-rule="evenodd" d="M102.172 29.0121C102.232 28.105 101.478 27.8667 100.634 27.8744C99.1907 27.8817 98.8655 28.4547 98.6361 29.6675C98.3697 31.1098 98.6727 31.9056 99.6118 31.9501C100.433 32.0024 101.071 31.9133 101.662 31.7346L101.787 30.9907C101.33 31.0647 100.62 31.1321 100.183 31.1171C99.6577 31.1093 99.5098 30.9528 99.6123 30.3508C99.887 30.4622 102.054 30.8119 102.172 29.0121ZM100.56 28.7148C100.974 28.7075 101.174 28.7888 101.108 29.1531C100.981 29.8825 99.6938 29.667 99.6938 29.6665C99.6968 29.6513 99.6997 29.6362 99.7027 29.6212C99.7954 29.1478 99.8788 28.7218 100.56 28.7148Z" fill="white"/>
<path d="M102.515 28.1572L103.181 27.9412L103.527 26.8408H104.394L104.216 27.9412H105.097L104.971 28.737H104.09L103.847 30.3207C103.75 30.946 103.855 31.0274 104.068 31.1092C104.068 31.1092 104.468 31.2501 104.505 31.2501L104.402 31.905H103.691C103.039 31.905 102.626 31.4962 102.781 30.4844L103.055 28.737H102.425L102.515 28.1572Z" fill="white"/>
<path fill-rule="evenodd" clip-rule="evenodd" d="M105.87 26.5212C105.751 26.5212 105.676 26.5953 105.662 26.7072L105.565 27.3683C105.552 27.4724 105.611 27.5393 105.713 27.5393H106.491C106.593 27.5393 106.669 27.4802 106.683 27.3683L106.786 26.7072C106.802 26.6031 106.757 26.5212 106.646 26.5212H105.87ZM106.549 27.9485H105.514L104.892 31.8973H105.928L106.549 27.9485Z" fill="white"/>
<path d="M107.287 27.9484H108.116L108.255 28.3722C108.633 28.1266 108.981 27.8816 109.58 27.8816C110.497 27.8816 110.653 28.5136 110.535 29.2648L110.12 31.8972H109.084L109.499 29.2498C109.558 28.8639 109.409 28.7152 109.151 28.7152C108.736 28.7152 108.485 28.826 108.145 29.0566L107.701 31.8972H106.665L107.287 27.9484Z" fill="white"/>
<path fill-rule="evenodd" clip-rule="evenodd" d="M112.348 33.0499H110.683L110.573 33.7415L112.333 33.9202C113.369 34.0316 113.954 33.4814 114.117 32.4629L114.805 28.1049C114.442 28.0002 113.539 27.8816 112.755 27.8816C111.875 27.8816 111.239 28.365 111.031 29.6959C110.824 31.0123 111.025 31.9049 112.178 31.9049C112.511 31.9049 112.874 31.8236 113.199 31.6226L113.088 32.3437C113.013 32.8199 112.717 33.0499 112.348 33.0499ZM113.31 30.9237C112.969 31.0569 112.792 31.0869 112.46 31.0869C111.875 31.0869 111.962 30.5072 112.067 29.8092L112.067 29.8083C112.133 29.4135 112.282 28.6779 112.874 28.6779H113.665L113.31 30.9237Z" fill="white"/>
<path d="M33.2532 14.9267C33.6197 12.6218 35.2443 12.0452 36.6777 12.0452C36.6777 12.0452 39.6872 12.0452 41.519 12.3016L41.1201 14.9101H37.1869C36.3586 14.9101 36.2793 15.3743 36.2154 15.8069L36.104 16.5104L40.0372 16.6866L39.6393 19.2645L35.6422 19.4085L34.9572 23.7619H31.8678L33.2532 14.9267Z" fill="white"/>
<path fill-rule="evenodd" clip-rule="evenodd" d="M48.5297 16.0949C47.7174 15.3105 45.8227 15.1028 44.5167 15.1028C42.8606 15.1028 40.9814 15.2147 40.233 18.7676C39.548 21.9854 40.7582 23.8421 42.2715 23.8421C43.1153 23.8421 44.1183 23.6339 44.5007 22.9298L44.9785 23.7302H47.4149L48.5297 16.0949ZM44.7878 20.5291C44.7399 21.057 44.4213 21.3611 43.7523 21.3611C42.956 21.3611 43.0993 20.2731 43.2591 19.1526C43.4503 17.7595 43.9121 17.5357 44.3739 17.4237C44.6919 17.344 45.0903 17.3756 45.2176 17.488L44.7878 20.5291Z" fill="white"/>
<path d="M48.6014 21.4255H52.2799C52.5505 21.4255 52.5985 21.3131 52.6304 21.1535L52.6464 21.0737C52.6784 20.8815 52.6304 20.7852 52.3758 20.7852H50.8625C49.3652 20.7852 48.4736 19.6806 48.7282 18.0326L48.856 17.2959C49.0627 15.9831 49.7956 15.1832 51.4357 15.1832C53.7128 15.1832 55.7198 15.1351 56.1337 15.7588L55.8471 17.5835H52.2959C52.0892 17.5835 51.9454 17.5835 51.898 17.872L51.882 17.9684C51.8341 18.2243 52.0099 18.2243 52.2006 18.2243H53.7932C55.593 18.2243 56.0224 19.5848 55.8157 20.8494L55.6724 21.7938C55.4018 23.5382 54.239 23.8423 53.2201 23.8423C50.9429 23.8423 48.7931 23.9065 48.3148 23.2501L48.6014 21.4255Z" fill="white"/>
<path d="M56.3693 15.8551L57.6589 15.2463L58.4866 12.8772H61.1302L60.7483 15.2463H62.1657L61.8312 17.3917H60.4143L59.9839 20.0805C59.8092 21.2171 59.9994 21.4409 60.3184 21.6331C60.3184 21.6331 60.939 21.9688 61.0508 21.9688L60.7643 23.778H58.8531C57.579 23.778 56.4481 22.977 56.7986 20.7208L57.3244 17.3912H56.1301L56.3693 15.8551Z" fill="white"/>
<path fill-rule="evenodd" clip-rule="evenodd" d="M66.8338 12.0452H71.7386C74.2229 12.0452 75.0511 13.5818 74.7326 15.567C74.5734 16.5596 73.809 17.5839 72.6462 17.6797C73.809 17.8719 74.4455 19.1044 74.2388 20.6255C73.809 23.6666 72.4235 23.7629 69.9712 23.7629H64.9866L66.8338 12.0452ZM70.2258 21.1373C70.8314 21.1373 71.0701 20.7213 71.1814 20.0173C71.2767 19.4246 71.1968 18.864 70.5758 18.864H68.8404L68.4899 21.1373H70.2258ZM71.6592 15.5831C71.5953 16.0307 71.2927 16.399 70.8149 16.399H69.2383L69.5089 14.6702H71.0855C71.436 14.6702 71.7705 14.879 71.6592 15.5831Z" fill="white"/>
<path fill-rule="evenodd" clip-rule="evenodd" d="M82.9819 16.0949C82.1696 15.3105 80.2744 15.1028 78.9683 15.1028C77.3128 15.1028 75.4331 15.2147 74.6847 18.7676C73.9997 21.9854 75.2094 23.8421 76.7226 23.8421C77.5664 23.8421 78.5704 23.6339 78.9518 22.9298L79.4301 23.7302H81.8665L82.9819 16.0949ZM79.2394 20.5291C79.192 21.057 78.873 21.3611 78.2045 21.3611C77.4082 21.3611 77.5514 20.2731 77.7102 19.1526C77.9014 17.7595 78.3637 17.5357 78.8256 17.4237C79.1436 17.344 79.542 17.3756 79.6693 17.488L79.2394 20.5291Z" fill="white"/>
<path d="M83.9019 15.263H86.4815L86.864 16.095C87.4691 15.5987 88.0577 15.1184 89.3483 15.1184C91.546 15.1184 91.577 16.527 91.2914 18.3201L90.4317 23.7624H87.3423L88.202 18.2559C88.3139 17.5834 88.1706 17.4238 87.8196 17.4238C87.2304 17.4238 86.8171 17.5839 86.5614 18.0165L85.6543 23.763H82.5649L83.9019 15.263Z" fill="white"/>
<path fill-rule="evenodd" clip-rule="evenodd" d="M99.9314 16.0949C99.1201 15.3105 97.2244 15.1028 95.9189 15.1028C94.2618 15.1028 92.3836 15.2147 91.6342 18.7676C90.9497 21.9854 92.1594 23.8421 93.6727 23.8421C94.5164 23.8421 95.5199 23.6339 95.9024 22.9298L96.3807 23.7302H98.8171L99.9314 16.0949ZM96.19 20.5291C96.1415 21.057 95.8225 21.3611 95.154 21.3611C94.3577 21.3611 94.5015 20.2731 94.6607 19.1526C94.852 17.7595 95.3138 17.5357 95.7751 17.4237C96.0941 17.344 96.492 17.3756 96.6188 17.488L96.19 20.5291Z" fill="white"/>
<path d="M100.851 15.263H103.432L103.814 16.095C104.419 15.5987 105.008 15.1184 106.297 15.1184C108.496 15.1184 108.527 16.527 108.24 18.3201L107.381 23.7624H104.291L105.152 18.2559C105.263 17.5834 105.12 17.4238 104.77 17.4238C104.179 17.4238 103.766 17.5839 103.512 18.0165L102.603 23.763H99.515L100.851 15.263Z" fill="white"/>
<path fill-rule="evenodd" clip-rule="evenodd" d="M116.882 16.0949C116.07 15.3105 114.175 15.1028 112.869 15.1028C111.212 15.1028 109.334 15.2147 108.585 18.7676C107.9 21.9854 109.11 23.8421 110.623 23.8421C111.467 23.8421 112.471 23.6339 112.853 22.9298L113.33 23.7302H115.768L116.882 16.0949ZM113.139 20.5291C113.092 21.057 112.774 21.3611 112.104 21.3611C111.308 21.3611 111.452 20.2731 111.611 19.1526C111.801 17.7595 112.264 17.5357 112.725 17.4237C113.044 17.344 113.442 17.3756 113.569 17.488L113.139 20.5291Z" fill="white"/>
<path d="M28.5748 5.43977L14.6172 3.94151L29.3345 2.44531L28.5748 5.43977Z" fill="white"/>
<path d="M22.6032 11.4286L8.08228 9.9303L23.3644 8.43359L22.6032 11.4286Z" fill="white"/>
<path d="M21.0847 17.4171L3.28992 15.9193L21.844 14.4226L21.0847 17.4171Z" fill="white"/>
<path d="M19.5653 23.4064L0 21.9076L20.325 20.4104L19.5653 23.4064Z" fill="white"/>
<path d="M18.0469 29.3944L3.28992 27.8966L18.8056 26.3999L18.0469 29.3944Z" fill="white"/>
<path d="M21.2517 35.4422L8.08228 33.9445L22.0115 32.4473L21.2517 35.4422Z" fill="white"/>
<path d="M28.6274 41.4261L14.6172 39.9273L29.3871 38.4312L28.6274 41.4261Z" fill="white"/>
<path d="M29.3717 1.80178C29.9706 1.61683 32.5946 0.819517 32.9172 1.19046C33.2399 1.56088 34.1053 2.46699 34.3923 2.90476C34.7614 3.46635 34.531 3.55338 34.2542 3.97095C33.9774 4.38852 32.3642 6.28829 30.7045 7.26123C29.0444 8.23417 29.1361 9.16152 29.2753 9.94899C29.4134 10.737 29.9664 12.5901 28.5836 15.6944C27.2002 18.7992 26.0477 22.9697 27.846 27.048C29.6443 31.1257 31.857 34.3694 32.1338 35.8982C32.41 37.4275 32.1338 38.2155 32.6399 38.818C33.1476 39.42 32.9172 41.7374 30.3814 41.3664C27.8455 40.9955 21.8527 39.7449 18.6252 34.416C15.3981 29.0866 13.739 21.0699 16.8738 14.7681C20.0086 8.46626 24.3432 6.98251 26.2328 6.28777C28.1228 5.59252 28.7727 1.98725 29.3717 1.80178Z" fill="white"/>
<path d="M32.1343 35.8976C31.8575 34.3688 29.6448 31.1251 27.8465 27.0474C26.0482 22.9691 27.2012 18.7987 28.5841 15.6938C29.967 12.5896 29.4139 10.7364 29.2758 9.94842C29.2407 9.75104 29.2088 9.54588 29.2067 9.33295C28.7387 9.31016 27.2285 9.51946 26.5111 10.1707C24.1206 12.3409 21.6327 16.858 22.2341 22.8857C22.8995 29.5544 26.1482 37.0358 32.8585 39.6423C32.8693 39.2962 32.7848 38.9874 32.641 38.817C32.1343 38.215 32.4106 37.427 32.1343 35.8976Z" fill="white"/>
<path d="M22.1723 19.3152C22.1723 19.3152 22.213 19.0676 22.3125 18.648C22.8732 14.7396 24.7189 11.7965 26.5095 10.1713C26.9249 9.79463 27.6048 9.56616 28.1949 9.44493C28.1949 9.44493 28.1949 9.44441 28.1954 9.44441C28.1954 9.44441 27.7249 6.45203 24.7911 6.84991C22.6135 7.79435 19.3643 9.75681 16.8722 14.7676C15.1126 18.305 14.8641 22.3833 15.5548 26.2222C16.0702 22.8583 18.1773 11.5074 22.1723 19.3152Z" fill="white"/>
<path fill-rule="evenodd" clip-rule="evenodd" d="M30.9035 42.498C30.6855 42.498 30.4607 42.4814 30.2252 42.4467C28.9031 42.2529 26.6683 41.8312 24.3087 40.7422C21.9522 39.6553 19.4493 37.8773 17.6969 34.9828C15.578 31.4755 14.1163 26.9263 14.1122 22.3268C14.1122 19.5805 14.64 16.8114 15.9017 14.2781C17.5407 10.9769 19.537 8.87924 21.3816 7.53899C23.1401 6.25792 24.7714 5.65944 25.731 5.30737L25.8586 5.26051C26.1209 5.17554 26.4833 4.84242 26.8147 4.30466C27.1466 3.77571 27.4352 3.10481 27.6899 2.51161C27.711 2.46365 27.7317 2.4164 27.7521 2.36977C27.9022 2.02711 28.0375 1.71828 28.2398 1.40864C28.2585 1.38447 28.2772 1.35893 28.2966 1.33238L28.2966 1.33234C28.4289 1.15118 28.5958 0.922718 29.0516 0.756904L29.0568 0.755317L29.0568 0.755312C29.3118 0.677221 29.9044 0.495699 30.5545 0.33053C31.222 0.166301 31.8962 0.00777108 32.5301 0C32.6801 0.000518072 32.8327 0.00777109 33.0239 0.0528434C33.2084 0.101542 33.4713 0.178217 33.7362 0.470928C33.8094 0.555519 33.9301 0.688198 34.0723 0.844565L34.0724 0.844602C34.1967 0.981269 34.3375 1.13603 34.4774 1.29259L34.4896 1.30642C34.7914 1.6475 35.0808 1.97467 35.301 2.30335C35.4799 2.58466 35.6629 2.90224 35.6716 3.37576C35.6742 3.77623 35.4943 4.10572 35.3881 4.25855C35.328 4.34583 35.2818 4.40782 35.2441 4.45833L35.2441 4.45836C35.2105 4.50349 35.1836 4.53947 35.1598 4.57613C35.0377 4.75798 34.8768 4.95899 34.6408 5.23667C34.4068 5.50866 34.1109 5.83401 33.7677 6.17905C33.0786 6.86912 32.2127 7.63846 31.2529 8.20419C30.737 8.50623 30.5071 8.75646 30.4077 8.91136C30.3123 9.06937 30.3004 9.14449 30.2948 9.30924C30.2937 9.42114 30.3123 9.56931 30.3458 9.75737C30.3546 9.80866 30.3676 9.87335 30.3831 9.95037C30.458 10.3238 30.5912 10.9873 30.5891 11.8188C30.5901 12.9332 30.3597 14.3858 29.5773 16.14C28.7346 18.0263 28.0094 20.2825 28.0125 22.5807C28.0125 23.9132 28.2486 25.2597 28.8408 26.6035C29.6412 28.4206 30.5303 30.0727 31.3003 31.5034L31.3003 31.5034C31.7957 32.424 32.2418 33.2529 32.5832 33.9752C32.8744 34.6 33.0981 35.1398 33.2048 35.7019C33.3352 36.4655 33.3631 37.0838 33.3818 37.4962C33.3945 37.7768 33.4029 37.962 33.4363 38.0327C33.4523 38.0839 33.4548 38.0874 33.4645 38.1005C33.4667 38.1035 33.4692 38.1069 33.4723 38.1115C33.8548 38.5948 33.9352 39.0735 33.9481 39.5844C33.9455 40.206 33.762 40.9075 33.2492 41.5085C32.7482 42.1048 31.907 42.4985 30.9463 42.4985L30.928 42.4983L30.9232 42.4982C30.9164 42.4981 30.9099 42.498 30.9035 42.498ZM29.6113 3.55449L29.5713 3.64613C29.2689 4.33786 28.8871 5.2112 28.298 5.98581C27.8862 6.52149 27.3507 7.03646 26.607 7.31363L26.5038 7.35143C25.5549 7.69891 24.1864 8.20001 22.6578 9.30976C21.0796 10.4604 19.3421 12.2545 17.8469 15.2562C16.7619 17.4347 16.2867 19.8598 16.2867 22.3268C16.2821 26.4517 17.633 30.6808 19.555 33.8462C21.0296 36.2806 23.1361 37.7929 25.2174 38.756C27.295 39.717 29.3248 40.1071 30.536 40.2832C30.6746 40.3034 30.7968 40.3117 30.9035 40.3117C31.3787 40.2998 31.4988 40.1827 31.605 40.076C31.707 39.9646 31.7745 39.7564 31.7715 39.5844C31.7725 39.5325 31.7663 39.4885 31.7611 39.4621C31.5524 39.1979 31.4122 38.8912 31.338 38.6104C31.2555 38.3052 31.2323 38.0322 31.2153 37.7732C31.2089 37.6653 31.2038 37.5585 31.1986 37.451L31.1986 37.4507C31.1791 37.0428 31.1591 36.6243 31.0633 36.0925C31.0313 35.891 30.8751 35.4522 30.6169 34.9103C30.3597 34.3648 30.0077 33.7001 29.6036 32.9484L29.3978 32.5659C28.6253 31.131 27.6978 29.4083 26.8518 27.49C26.1245 25.843 25.8354 24.1748 25.8364 22.5812C25.8385 19.8246 26.6817 17.2933 27.5904 15.2479C28.2558 13.7481 28.4114 12.6379 28.4135 11.8198C28.4118 11.1983 28.3264 10.7665 28.2502 10.3817L28.2502 10.3817L28.2502 10.3816C28.2338 10.2988 28.2178 10.2181 28.2032 10.1382C28.1661 9.91798 28.1197 9.63925 28.1187 9.30976C28.1135 8.8409 28.2346 8.25289 28.5805 7.72446C28.9232 7.19292 29.4423 6.73494 30.1556 6.31582C31.2107 5.70605 32.4008 4.50671 32.992 3.80939C33.1868 3.58247 33.3316 3.3913 33.3476 3.36488C33.3528 3.35711 33.3569 3.35037 33.362 3.34312C33.2388 3.1877 33.0481 2.96286 32.858 2.75252C32.7453 2.62629 32.6321 2.50177 32.5248 2.38384L32.5247 2.38376C32.4656 2.31877 32.4083 2.25577 32.3539 2.19559C32.0627 2.22771 31.5488 2.32822 31.0859 2.44996C30.6618 2.55772 30.2535 2.67636 29.968 2.76184C29.8809 2.93177 29.7541 3.22034 29.6113 3.55449Z" fill="white"/>
</svg>
