<svg width="88" height="48" viewBox="0 0 88 48" fill="none" xmlns="http://www.w3.org/2000/svg">
<path d="M3.03935 40.8948C2.26073 40.8948 1.04519 40.7498 0.218199 40.5333V38.7711C0.972632 38.9641 1.96894 39.1331 3.28327 39.1331C4.96094 39.1331 5.69067 38.1675 5.69067 36.1648C5.69067 33.824 5.03401 33.1484 3.72019 32.8829C1.02101 32.3278 0 31.1692 0 28.3214C0 24.87 1.99415 23.6633 4.7906 23.6633C5.59392 23.6633 6.66381 23.8324 7.36936 24.0254V25.7871C6.54288 25.5941 5.39888 25.4255 4.54821 25.4255C3.33165 25.4255 2.16449 26.1496 2.16449 28.0558C2.16449 30.0106 2.50517 30.5656 4.03719 30.8792C6.37202 31.3617 7.85567 32.3758 7.85567 35.9227C7.85516 39.9297 5.93408 40.8948 3.03935 40.8948Z" fill="white"/>
<path fill-rule="evenodd" clip-rule="evenodd" d="M9.69647 28.6595V44.8289H11.7637V40.7984C12.1286 40.8464 12.566 40.8949 13.1259 40.8949C16.9933 40.8949 18.3061 39.2052 18.3061 33.9201C18.3061 30.3247 17.3087 28.4905 14.4639 28.4905C13.3199 28.4905 12.3473 28.925 11.5934 29.6971L11.3993 28.6595H9.69647ZM11.7637 39.0607V32.2789C11.7637 31.4108 12.7132 30.2282 14.0749 30.2277C15.6311 30.2277 16.191 31.0968 16.191 34.1616C16.191 37.492 15.6794 39.1572 13.3698 39.1572C12.6396 39.1572 12.1286 39.1092 11.7637 39.0607Z" fill="white"/>
<path fill-rule="evenodd" clip-rule="evenodd" d="M26.6661 39.5438C27.0309 40.5334 28.0283 40.7264 28.4909 40.7264V40.7254H29.2196V39.0357C28.4415 39.0357 28.1497 38.7462 28.1497 38.2636V32.4719C28.1497 29.7206 27.1771 28.49 24.0142 28.49C22.8229 28.49 21.632 28.707 20.7315 28.9725V30.7342C21.947 30.3967 22.8718 30.2277 24.2582 30.2277C25.4737 30.2277 26.082 30.9758 26.082 31.9894V33.2931H24.1614C21.4617 33.2931 19.8319 34.7172 19.8319 37.3235C19.8319 40.3159 21.6804 40.8954 23.4559 40.8954C25.0851 40.8954 26.0583 40.4129 26.6661 39.5438ZM26.0825 34.9342V37.4685C26.0825 37.9511 25.6204 39.1577 23.9427 39.1577C22.6536 39.1577 21.948 38.6757 21.948 37.179C21.948 35.5863 22.9942 34.9342 24.04 34.9342H26.0825Z" fill="white"/>
<path d="M37.4201 40.5093C36.6409 40.7264 35.6446 40.8954 34.7688 40.8954C31.9713 40.8954 30.5123 39.9783 30.5123 34.4516C30.5123 30.1322 31.8256 28.491 34.744 28.491C35.5469 28.491 36.7145 28.684 37.4201 28.8525V30.6382C36.5195 30.4452 35.8386 30.3002 34.5984 30.3002C33.1878 30.3002 32.629 31.3623 32.629 34.9342C32.629 38.5541 33.3829 39.0852 34.5984 39.0852C35.9117 39.0852 36.7145 38.8682 37.4201 38.7236V40.5093Z" fill="white"/>
<path fill-rule="evenodd" clip-rule="evenodd" d="M43.0022 39.1572C41.7861 39.1572 41.0075 38.6021 40.9349 35.4168H47.2092V33.6066C47.2092 30.4207 46.0904 28.4905 43.2939 28.4905C40.3745 28.4905 38.8672 30.2277 38.8672 34.6927C38.8672 40.0743 40.4476 40.8949 43.2451 40.8949C44.1199 40.8949 45.4831 40.7259 46.2612 40.5089V38.7712C45.531 38.9397 44.3397 39.1572 43.0022 39.1572ZM45.1903 33.7761H40.9586C41.0806 31.0003 41.6888 30.2037 43.2456 30.2042C44.6803 30.2042 45.1903 31.2903 45.1903 33.1245V33.7761Z" fill="white"/>
<path d="M56.53 40.4843C55.9953 40.6293 54.632 40.8948 53.8303 40.8948C50.3525 40.8948 48.9182 39.2051 48.9182 32.0138C48.9182 24.8945 50.5707 23.6633 54.121 23.6633C54.9007 23.6633 55.8723 23.8324 56.53 24.0014V25.7876C55.7266 25.5946 54.632 25.4741 53.6841 25.4741C51.9087 25.4741 51.0812 26.3432 51.0812 32.1833C51.0812 38.2645 51.9581 39.0851 53.7078 39.0851C54.7051 39.0851 55.9222 38.8681 56.53 38.7236V40.4843Z" fill="white"/>
<path d="M64.5714 40.7263L64.4006 39.7367C63.7202 40.4843 62.8438 40.8953 61.6041 40.8953C58.9029 40.8953 58.1011 39.4712 58.1011 36.5273V28.6594H60.1694V36.7678C60.1694 38.2885 60.437 39.1571 61.9186 39.1571C63.2571 39.1571 64.1577 38.0225 64.205 37.1784V28.6594H66.2728V40.7263H64.5714Z" fill="white"/>
<path fill-rule="evenodd" clip-rule="evenodd" d="M69.2242 40.6723C69.9589 40.7801 70.7412 40.895 72.1847 40.895C76.0516 40.895 77.3644 39.2058 77.3649 33.9202C77.3649 30.3248 76.367 28.4905 73.5232 28.4905C72.4518 28.4905 71.5517 28.8766 70.822 29.5527V23.833H68.7548V40.6054C68.913 40.6266 69.0675 40.6493 69.2242 40.6723ZM70.8215 39.0608V32.279C70.8215 31.4109 71.7709 30.2282 73.1321 30.2277C74.6878 30.2277 75.2482 31.0968 75.2482 34.1617C75.2482 37.4921 74.7377 39.1573 72.4281 39.1573C71.6974 39.1573 71.1869 39.1093 70.8215 39.0608Z" fill="white"/>
<path fill-rule="evenodd" clip-rule="evenodd" d="M83.3185 39.1572C82.103 39.1572 81.3238 38.6021 81.2523 35.4168H87.5266V33.6066C87.5266 30.4207 86.4088 28.4905 83.6124 28.4905C80.6924 28.4905 79.1846 30.2277 79.1846 34.6927C79.1846 40.0743 80.766 40.8949 83.5624 40.8949C84.4373 40.8949 85.8 40.7259 86.5781 40.5089V38.7712C85.8479 38.9397 84.657 39.1572 83.3185 39.1572ZM85.5077 33.7761H81.276C81.3969 31.0003 82.0062 30.2037 83.5624 30.2042C84.9972 30.2042 85.5077 31.2903 85.5077 33.1245V33.7761Z" fill="white"/>
<path d="M29.7332 12.2965L29.7311 22.1886L38.1652 17.3559L38.3644 17.0107L38.3659 7.354L29.7332 12.2965Z" fill="white"/>
<path d="M28.935 12.2965L28.9381 22.1886L20.503 17.3559L20.3033 17.0107L20.3028 7.354L28.935 12.2965Z" fill="white"/>
<path d="M29.3323 11.6072L37.9671 6.66371L29.532 1.83154L29.1321 1.83307L20.7026 6.66014L29.3323 11.6072Z" fill="white"/>
<path fill-rule="evenodd" clip-rule="evenodd" d="M29.7332 0.107617L39.5686 5.74609C39.8162 5.88804 39.9695 6.15102 39.9685 6.43494L39.9669 17.7011C39.9669 17.9846 39.8151 18.2475 39.5671 18.39L29.7306 24.0259C29.6071 24.0969 29.4692 24.1326 29.3303 24.1326C29.1923 24.1326 29.0534 24.0969 28.9289 24.0259L19.0924 18.39C18.8469 18.247 18.6946 17.9856 18.6946 17.7011V6.43391C18.6946 6.14898 18.8469 5.88753 19.0924 5.74506L28.9335 0.107617C29.18 -0.0358723 29.4846 -0.0358723 29.7332 0.107617ZM20.4984 17.358L28.9299 22.1891L28.9325 12.2966L20.2966 7.35153V17.0138L27.2831 13.0114C27.3799 12.9568 27.5034 12.9895 27.5584 13.084C27.614 13.1789 27.5811 13.301 27.4843 13.3556L20.4984 17.358ZM29.3323 11.6072L20.697 6.66319L29.1352 1.82847V9.83528C29.1352 9.94455 29.2232 10.0339 29.3344 10.0339C29.445 10.0329 29.5346 9.94455 29.5346 9.83426V1.82847L37.9666 6.66472L29.3323 11.6072ZM38.3654 7.35408L29.7332 12.2966L29.7306 22.1891L38.1647 17.357L31.1813 13.3556C31.0856 13.302 31.0511 13.1794 31.1083 13.0845C31.1623 12.9895 31.2848 12.9573 31.3795 13.0109L38.3644 17.0113L38.3654 7.35408Z" fill="white"/>
<path fill-rule="evenodd" clip-rule="evenodd" d="M51.2772 46.3296L51.463 47.1951H51.902L51.0832 43.7708H50.5166L49.6845 47.1951H50.1224L50.3149 46.3296H51.2772ZM50.3941 45.9624L50.7935 44.094L51.198 45.9624H50.3941Z" fill="white"/>
<path fill-rule="evenodd" clip-rule="evenodd" d="M56.0967 47.1951L55.4225 45.7081C55.7725 45.5713 55.915 45.2384 55.9145 44.7349C55.9145 44.1328 55.7066 43.7366 54.9588 43.7366C54.5487 43.7366 54.1257 43.7708 54.1257 43.7708V47.1951H54.5533V45.7766H54.9923L55.6248 47.1951H56.0967ZM54.5538 44.1185C54.5538 44.1185 54.7468 44.0889 55.0165 44.0889C55.3664 44.0889 55.4765 44.2942 55.4765 44.7696C55.4765 45.3027 55.2933 45.4196 55.0165 45.4196H54.5538V44.1185Z" fill="white"/>
<path d="M59.7314 47.1461C59.6234 47.1757 59.3465 47.2293 59.1844 47.2293C58.4804 47.2293 58.1886 46.8867 58.1886 45.4293C58.1886 43.9863 58.5236 43.7366 59.2436 43.7366C59.4026 43.7366 59.5981 43.7708 59.7314 43.805V44.167C59.5693 44.1282 59.3465 44.1032 59.1561 44.1032C58.7948 44.1032 58.6281 44.2794 58.6281 45.463C58.6281 46.6957 58.8061 46.8622 59.1612 46.8622C59.3635 46.8622 59.6089 46.8183 59.7314 46.7892V47.1461Z" fill="white"/>
<path d="M63.4516 47.1951V45.6198H62.4363V47.1951H62.0071V43.7708H62.4363V45.2582H63.4516V43.7708H63.8808V47.1951H63.4516Z" fill="white"/>
<path d="M66.1554 47.1951V46.8382H66.5007V44.1282H66.1554V43.7708H67.2758V44.1282H66.9289V46.8382H67.2758V47.1951H66.1554Z" fill="white"/>
<path d="M70.5456 44.143V47.1951H70.1165V44.143H69.3574V43.7708H71.3047V44.143H70.5456Z" fill="white"/>
<path d="M73.4985 47.1951V43.7708H75.115V44.1282H73.9267V45.248H74.992V45.6055H73.9267V46.8376H75.115V47.1946H73.4985V47.1951Z" fill="white"/>
<path d="M78.8639 47.1461C78.7559 47.1757 78.4795 47.2293 78.3184 47.2293C77.6119 47.2293 77.3211 46.8867 77.3211 45.4293C77.3211 43.9863 77.6566 43.7366 78.3761 43.7366C78.5351 43.7366 78.7306 43.7708 78.8639 43.805V44.167C78.7018 44.1282 78.4795 44.1032 78.2881 44.1032C77.9278 44.1032 77.7606 44.2794 77.7606 45.463C77.7606 46.6957 77.9386 46.8622 78.2932 46.8622C78.4955 46.8622 78.742 46.8183 78.8639 46.7892V47.1461Z" fill="white"/>
<path d="M82.138 44.143V47.1951H81.7088V44.143H80.9497V43.7708H82.8965V44.143H82.138Z" fill="white"/>
<path d="M85.6008 47.2294C85.4434 47.2294 85.1969 47.1997 85.0291 47.1558V46.7984C85.1835 46.8377 85.3852 46.8719 85.6507 46.8719C85.9914 46.8719 86.1391 46.6763 86.1391 46.2704C86.1391 45.796 86.0048 45.6591 85.7398 45.6055C85.1932 45.4922 84.9843 45.2578 84.9843 44.6803C84.9843 43.9812 85.3898 43.7361 85.9564 43.7361C86.1185 43.7361 86.3362 43.7703 86.4803 43.8091V44.1666C86.3115 44.1277 86.0794 44.093 85.9075 44.093C85.661 44.093 85.4253 44.2401 85.4253 44.6261C85.4253 45.0224 85.4938 45.1352 85.8031 45.1986C86.276 45.2961 86.5781 45.5019 86.5781 46.2208C86.5776 47.0338 86.187 47.2294 85.6008 47.2294Z" fill="white"/>
</svg>
