<svg width="146" height="41" viewBox="0 0 146 41" fill="none" xmlns="http://www.w3.org/2000/svg">
<path d="M5.26268 32.7288V27.9552L0.390704 23.0367C0.143944 22.7876 0 22.4554 0 22.1025C0 21.3972 0.616901 20.7739 1.31606 20.7739C1.66615 20.7739 1.99465 20.9192 2.24192 21.1684L6.57925 25.5476L10.9171 21.1684C11.1639 20.9198 11.4929 20.7739 11.8425 20.7739C12.5416 20.7739 13.1585 21.3967 13.1585 22.1025C13.1585 22.4554 13.0146 22.7876 12.7678 23.0367L7.8948 27.9557V32.7293C7.8948 33.4554 7.29846 34.0579 6.57874 34.0579C5.85954 34.0574 5.26268 33.4554 5.26268 32.7288Z" fill="white"/>
<path fill-rule="evenodd" clip-rule="evenodd" d="M25.7094 27.4159C25.7094 23.742 22.7693 20.7739 19.1306 20.7739C15.4919 20.7739 12.5519 23.742 12.5519 27.4159C12.5519 31.0893 15.4919 34.0574 19.1306 34.0574C22.7693 34.0574 25.7094 31.0893 25.7094 27.4159ZM23.0783 27.4159C23.0783 29.6159 21.3098 31.4007 19.1306 31.4007C16.9514 31.4007 15.183 29.6154 15.183 27.4159C15.183 25.2154 16.9509 23.4306 19.1306 23.4306C21.3103 23.4306 23.0783 25.2159 23.0783 27.4159Z" fill="white"/>
<path d="M38.3749 31.1724C38.3749 31.4002 38.3132 31.6078 38.2098 31.7946C38.4155 32.0645 38.5394 32.3754 38.5394 32.7288C38.5394 33.5592 37.8819 34.223 37.0593 34.223C36.5452 34.223 36.0928 33.9744 35.8255 33.5592C35.0241 33.8913 34.181 34.0574 33.3384 34.0574C29.6997 34.0574 26.7591 31.0893 26.7591 27.4159C26.7591 23.742 29.6997 20.7739 33.3384 20.7739C35.0241 20.7739 36.6892 21.4382 37.9842 22.7248C38.2304 22.9739 38.3754 23.3268 38.3754 23.6595C38.3754 24.3856 37.7585 24.9876 37.0593 24.9876C36.7092 24.9876 36.3807 24.863 36.1335 24.5932C35.3731 23.8043 34.345 23.4311 33.3379 23.4311C31.1587 23.4311 29.3902 25.2159 29.3902 27.4164C29.3902 29.6159 31.1581 31.4012 33.3379 31.4012C34.1804 31.4012 35.0235 31.1521 35.7433 30.5916V28.744H34.6534C33.9342 28.744 33.3379 28.1425 33.3379 27.4159C33.3379 26.6893 33.9337 26.0868 34.6534 26.0868H37.0593C37.7785 26.0868 38.3754 26.6888 38.3754 27.4159V31.1724H38.3749Z" fill="white"/>
<path fill-rule="evenodd" clip-rule="evenodd" d="M51.0707 34.0574C51.7909 34.0574 52.3873 33.4549 52.3873 32.7288V26.7516C52.3873 23.4514 49.7351 20.7739 46.466 20.7739C43.197 20.7739 40.5448 23.4519 40.5448 26.7516V32.7288C40.5448 33.4554 41.1412 34.0574 41.8609 34.0574C42.5806 34.0574 43.1769 33.4549 43.1769 32.7288V30.0721H49.7552V32.7288C49.7552 33.4554 50.352 34.0574 51.0707 34.0574ZM49.7557 26.7516V27.4159H43.1774V26.7516C43.1774 24.9253 44.6575 23.4311 46.4666 23.4311C48.2756 23.4311 49.7557 24.9248 49.7557 26.7516Z" fill="white"/>
<path fill-rule="evenodd" clip-rule="evenodd" d="M94.1248 34.0574C93.4061 34.0574 92.8092 33.4554 92.8092 32.7288V22.1025C92.8092 21.376 93.4056 20.7739 94.1248 20.7739H100.046C102.226 20.7739 103.993 22.5587 103.993 24.7592C103.993 25.6104 103.726 26.3982 103.274 27.0417C104.118 27.7683 104.652 28.8686 104.652 30.0721C104.652 32.2721 102.884 34.0574 100.704 34.0574H94.1248ZM95.4413 23.4306V26.0868H100.046C100.766 26.0868 101.363 25.4853 101.363 24.7587C101.363 24.0321 100.766 23.4301 100.046 23.4301H95.4413V23.4306ZM95.4413 31.4007V28.744V28.7435H100.704C101.424 28.7435 102.02 29.3455 102.02 30.0721C102.02 30.7987 101.423 31.4007 100.704 31.4007H95.4413Z" fill="white"/>
<path fill-rule="evenodd" clip-rule="evenodd" d="M116.785 34.0574C117.504 34.0574 118.1 33.4549 118.1 32.7288H118.1V26.7516C118.1 23.4514 115.447 20.7739 112.178 20.7739C108.91 20.7739 106.257 23.4519 106.257 26.7516V32.7288C106.257 33.4554 106.855 34.0574 107.574 34.0574C108.294 34.0574 108.889 33.4549 108.889 32.7288V30.0721H115.469V32.7288C115.469 33.4554 116.065 34.0574 116.785 34.0574ZM115.47 27.4159H108.89V26.7516C108.89 24.9253 110.371 23.4311 112.179 23.4311C113.99 23.4311 115.47 24.9248 115.47 26.7516V27.4159Z" fill="white"/>
<path fill-rule="evenodd" clip-rule="evenodd" d="M121.674 34.0574C120.954 34.0574 120.357 33.4554 120.357 32.7288V22.1025C120.357 21.376 120.953 20.7739 121.674 20.7739H127.595C129.773 20.7739 131.542 22.5587 131.542 24.7592C131.542 25.6104 131.274 26.3982 130.822 27.0417C131.666 27.7683 132.2 28.8686 132.2 30.0721C132.2 32.2721 130.432 34.0574 128.253 34.0574H121.674ZM122.989 23.4306V26.0868H127.595C128.313 26.0868 128.91 25.4853 128.91 24.7587C128.91 24.0321 128.314 23.4301 127.595 23.4301H122.989V23.4306ZM122.989 31.4007V28.744V28.7435H128.252C128.971 28.7435 129.569 29.3455 129.569 30.0721C129.569 30.7987 128.971 31.4007 128.252 31.4007H122.989Z" fill="white"/>
<path d="M137.83 32.7288V27.9552L132.957 23.0362C132.71 22.7876 132.567 22.455 132.567 22.102C132.567 21.3967 133.183 20.7734 133.883 20.7734C134.232 20.7734 134.561 20.9188 134.808 21.1679L139.146 25.5471L143.484 21.1679C143.731 20.9193 144.06 20.7734 144.41 20.7734C145.109 20.7734 145.725 21.3962 145.725 22.102C145.725 22.455 145.581 22.7871 145.335 23.0362L140.462 27.9552V32.7288C140.462 33.4549 139.865 34.0574 139.146 34.0574C138.427 34.0574 137.83 33.4554 137.83 32.7288Z" fill="white"/>
<path d="M68.9305 22.8718C68.9305 21.5847 67.8951 20.5405 66.6207 20.5405C66.0861 20.5405 65.5967 20.7248 65.2049 21.032L65.2029 21.0305L58.273 26.4715L58.2751 26.4731C57.7312 26.8997 57.3801 27.565 57.3801 28.3134C57.3801 29.601 58.4154 30.6452 59.6909 30.6452C60.2245 30.6452 60.7149 30.461 61.1066 30.1537L61.1082 30.1553L68.0375 24.7142L68.0365 24.7127C68.5789 24.2855 68.9305 23.6212 68.9305 22.8718Z" fill="white"/>
<ellipse cx="72.598" cy="11.5221" rx="9.24016" ry="9.32828" fill="white"/>
<ellipse cx="72.598" cy="28.3133" rx="9.24016" ry="8.55135" fill="white"/>
<path d="M66.6834 20.5415H68.8395L68.0026 21.0044L66.6834 20.5415Z" fill="white"/>
<path d="M76.2655 22.8718C76.2655 21.5847 77.3008 20.5405 78.5758 20.5405C79.1099 20.5405 79.5998 20.7248 79.9916 21.032L79.9936 21.0305L86.923 26.4715L86.9219 26.4731C87.4643 26.8997 87.8154 27.565 87.8154 28.3134C87.8154 29.601 86.7811 30.6452 85.5051 30.6452C84.972 30.6452 84.4821 30.461 84.0893 30.1537L84.0883 30.1553L77.159 24.7142L77.16 24.7127C76.6171 24.2855 76.2655 23.6212 76.2655 22.8718Z" fill="white"/>
<path d="M78.5115 20.5415H76.357L77.1924 21.0044L78.5115 20.5415Z" fill="white"/>
<path d="M63.5198 12.0836C62.89 12.0836 62.3816 11.5698 62.3816 10.9361C62.3816 10.3014 62.89 9.7876 63.5198 9.7876V12.0836Z" fill="white"/>
<path d="M81.6762 12.0836C82.3049 12.0836 82.8149 11.5698 82.8149 10.9361C82.8149 10.3014 82.3049 9.7876 81.6762 9.7876V12.0836Z" fill="white"/>
<path d="M65.8568 35.4251L80.6743 29.3202L80.6763 29.3218C81.0336 29.1739 81.4253 29.0908 81.8381 29.0908C83.5382 29.0908 84.9175 30.4838 84.9175 32.2006C84.9175 33.7098 83.8523 34.9673 82.4396 35.2496V35.2507L66.739 38.3895L66.7384 38.389C66.6418 38.4087 66.5405 38.4196 66.4382 38.4196C65.5879 38.4196 64.898 37.7231 64.898 36.8647C64.898 36.2134 65.2939 35.6565 65.8568 35.4251Z" fill="white"/>
<path d="M79.3392 35.4251L64.5207 29.3202V29.3218C64.1624 29.1739 63.7696 29.0908 63.3578 29.0908C61.6567 29.0908 60.2774 30.4838 60.2774 32.2006C60.2774 33.7098 61.3436 34.9673 62.7569 35.2496V35.2507L78.4575 38.3895V38.389C78.5542 38.4087 78.6554 38.4196 78.7577 38.4196C79.608 38.4196 80.2979 37.7231 80.2979 36.8647C80.2979 36.2134 79.9011 35.6565 79.3392 35.4251Z" fill="white"/>
<path d="M66.6547 30.1987H78.5408L72.5985 32.6473L66.6547 30.1987Z" fill="white"/>
<path d="M62.1425 29.343L66.6146 25.8311L63.3948 29.0919L62.1425 29.343Z" fill="white"/>
<path d="M83.0529 29.343L78.5809 25.8311L81.8011 29.0919L83.0529 29.343Z" fill="white"/>
<path d="M69.241 15.3703C69.241 15.8213 69.059 16.2298 68.766 16.5256C68.473 16.8204 68.0684 17.0041 67.6227 17.0041C67.177 17.0041 66.7719 16.8204 66.4793 16.5256C66.1863 16.2303 66.0043 15.8218 66.0043 15.3703C66.0043 14.9188 66.1863 14.5104 66.4793 14.215C66.7713 13.9203 67.1764 13.7371 67.6227 13.7371C68.0679 13.7371 68.4725 13.9203 68.766 14.215C69.0595 14.5098 69.241 14.9193 69.241 15.3703Z" fill="white"/>
<path d="M75.9555 15.3703C75.9555 15.8213 76.1364 16.2298 76.4295 16.5256C76.7235 16.8204 77.1281 17.0041 77.5733 17.0041C78.019 17.0041 78.4236 16.8204 78.7171 16.5256C79.0102 16.2303 79.1911 15.8218 79.1911 15.3703C79.1911 14.9188 79.0102 14.5104 78.7171 14.215C78.4241 13.9197 78.0195 13.7371 77.5733 13.7371C77.1286 13.7371 76.724 13.9203 76.4295 14.215C76.1359 14.5104 75.9555 14.9193 75.9555 15.3703Z" fill="white"/>
<path fill-rule="evenodd" clip-rule="evenodd" d="M68.3198 4.91856C68.3218 5.53097 68.7254 6.03023 69.2739 6.35875C69.8276 6.69142 70.5571 6.88397 71.3596 6.88501C71.7986 6.88397 72.2181 6.82636 72.5975 6.71893C72.9774 6.82636 73.3953 6.88397 73.8349 6.88397C74.6374 6.88397 75.3684 6.69142 75.9215 6.35875C76.4685 6.03075 76.8721 5.53149 76.8762 4.91856C76.8762 4.73692 76.7276 4.59005 76.5487 4.59005C76.3698 4.59005 76.2243 4.73692 76.2243 4.91856H76.2223C76.2254 5.21075 76.0208 5.52993 75.5869 5.7941C75.1592 6.05359 74.5309 6.22797 73.8349 6.22693C73.7737 6.22693 73.7125 6.22589 73.6513 6.2233C74.0919 5.89945 74.3983 5.45156 74.4004 4.91856C74.3968 4.51272 74.1336 4.20029 73.8092 4.0067C73.4796 3.80845 73.0586 3.69998 72.598 3.69946C72.1374 3.69998 71.7168 3.80845 71.3863 4.0067C71.0629 4.20029 70.7982 4.51272 70.7956 4.91856C70.7977 5.45208 71.1035 5.89945 71.5441 6.2233C71.484 6.22589 71.4223 6.22693 71.3606 6.22693C70.664 6.22797 70.0368 6.05359 69.6086 5.7941C69.1737 5.52993 68.9691 5.21024 68.9722 4.91856C68.9722 4.73692 68.8256 4.59005 68.6452 4.59005C68.4648 4.59005 68.3198 4.73692 68.3198 4.91856ZM71.447 4.91856C71.4439 4.83345 71.5102 4.70059 71.721 4.57136C71.9256 4.44732 72.2397 4.35702 72.5923 4.35702H72.5985C72.9532 4.35702 73.2709 4.44732 73.4755 4.57136C73.6863 4.70059 73.7526 4.83345 73.7495 4.91856C73.7516 5.21075 73.5465 5.52993 73.1131 5.7941C72.964 5.88492 72.7903 5.96484 72.5985 6.03075C72.4062 5.96484 72.232 5.88492 72.0834 5.7941C71.6495 5.52993 71.4449 5.21023 71.447 4.91856Z" fill="white"/>
<path d="M72.599 18.2423C71.4912 18.2423 70.4347 17.8936 69.4826 17.2702C69.3824 17.2043 69.3541 17.0684 69.4189 16.9672C69.4847 16.8649 69.6194 16.8364 69.7196 16.9018C70.6126 17.4861 71.5816 17.8027 72.5995 17.8027C73.6154 17.8027 74.5824 17.4851 75.4758 16.9018H75.4769C75.5771 16.8353 75.7118 16.8649 75.7771 16.9661C75.8434 17.0678 75.8141 17.2038 75.7128 17.2697C74.7607 17.8925 73.7079 18.2423 72.6016 18.2423C72.6006 18.2423 72.599 18.2423 72.599 18.2423Z" fill="white"/>
<ellipse cx="68.9938" cy="11.522" rx="1.65998" ry="1.67581" fill="white"/>
<path d="M69.824 12.3596C69.824 12.5911 69.7309 12.8003 69.5808 12.9523C69.4297 13.1034 69.2225 13.1973 68.9937 13.1973C68.765 13.1973 68.5573 13.1034 68.4072 12.9523C68.2565 12.8003 68.164 12.5916 68.164 12.3596C68.164 12.1277 68.2565 11.9185 68.4072 11.767C68.5573 11.6154 68.7645 11.5215 68.9937 11.5215C69.222 11.5215 69.4297 11.6154 69.5808 11.767C69.7314 11.919 69.824 12.1282 69.824 12.3596Z" fill="white"/>
<circle cx="69.6665" cy="11.8486" r="0.5" fill="white"/>
<ellipse cx="76.2012" cy="11.522" rx="1.65998" ry="1.67581" fill="white"/>
<path d="M77.0315 12.3596C77.0315 12.5911 76.9379 12.8003 76.7873 12.9523C76.6377 13.1034 76.431 13.1973 76.2017 13.1973C75.9724 13.1973 75.7648 13.1034 75.6131 12.9523C75.4645 12.8003 75.3699 12.5916 75.3699 12.3596C75.3699 12.1277 75.4645 11.9185 75.6131 11.767C75.7648 11.6154 75.9724 11.5215 76.2017 11.5215C76.431 11.5215 76.6377 11.6154 76.7873 11.767C76.9384 11.919 77.0315 12.1282 77.0315 12.3596Z" fill="white"/>
<circle cx="76.8729" cy="11.8486" r="0.5" fill="white"/>
<path d="M72.5985 37.2181L68.9619 36.491L71.7672 37.3841L72.5985 37.2181Z" fill="white"/>
<path d="M72.5985 32.6474L76.2351 34.1457L73.2581 32.376L72.5985 32.6474Z" fill="white"/>
<circle cx="72.7659" cy="28.479" r="0.5" fill="white"/>
<path d="M88.255 24.7427L81.3266 19.2991C81.2665 19.2524 81.2063 19.2072 81.1441 19.1631C82.5399 17.5729 83.4914 15.6002 83.8492 13.4496C84.5499 12.8335 84.9879 11.9289 84.9879 10.9361C84.9879 9.77876 84.4014 8.75739 83.5141 8.15692C82.07 3.36252 77.6622 0 72.5985 0V2.19376C77.1153 2.19376 80.8742 5.46805 81.6767 9.79329V9.7881C82.3055 9.7881 82.8154 10.3019 82.8154 10.9366C82.8154 11.5205 82.3795 11.9979 81.8212 12.0701C81.6042 15.8551 79.1526 19.0344 75.7786 20.2836C76.0074 20.3609 76.2305 20.4486 76.4495 20.542H78.512L78.5059 20.5441C78.53 20.5436 78.5521 20.541 78.5763 20.541C79.1104 20.541 79.6003 20.7252 79.9921 21.0325L79.9941 21.0309L86.9235 26.472L86.9224 26.4735C87.4648 26.9002 87.8159 27.5655 87.8159 28.3139C87.8159 29.6015 86.7816 30.6457 85.5056 30.6457C85.0409 30.6457 84.6111 30.5056 84.2477 30.2673C84.6672 30.7977 84.9185 31.4693 84.9185 32.2011C84.9185 33.7103 83.8534 34.9678 82.4407 35.2501V35.2512L79.8461 35.7696C80.1252 36.0504 80.299 36.436 80.299 36.8647C80.299 37.7231 79.6091 38.4196 78.7588 38.4196C78.6565 38.4196 78.5552 38.4087 78.4586 38.389V38.3895L72.5995 37.2181V39.4545L78.036 40.5423C78.274 40.589 78.5172 40.6134 78.7588 40.6134C80.5951 40.6134 82.1245 39.2614 82.4206 37.4916L82.8632 37.4029C85.1987 36.9353 86.9245 34.9258 87.0803 32.5519C88.7783 31.9079 89.989 30.2507 89.989 28.3139C89.9879 26.9095 89.3566 25.6074 88.255 24.7427Z" fill="white"/>
<path d="M56.941 24.7427L63.8699 19.2991C63.9295 19.2524 63.9902 19.2072 64.0518 19.1631C62.6566 17.5729 61.7045 15.6002 61.3467 13.4496C60.6466 12.8335 60.2086 11.9289 60.2086 10.9361C60.2086 9.77876 60.7946 8.75739 61.6824 8.15692C63.126 3.36252 67.5337 0 72.5985 0V2.19376C68.0812 2.19376 64.3217 5.46805 63.5198 9.79329V9.7881C62.891 9.7881 62.3816 10.3019 62.3816 10.9366C62.3816 11.5205 62.817 11.9979 63.3758 12.0701C63.5928 15.8551 66.0439 19.0344 69.4184 20.2836C69.1896 20.3609 68.9665 20.4486 68.747 20.542H66.6845L66.6912 20.5441C66.667 20.5436 66.6444 20.541 66.6207 20.541C66.0866 20.541 65.5967 20.7252 65.2049 21.0325L65.2029 21.0309L58.2735 26.472L58.2751 26.4735C57.7322 26.9002 57.3811 27.5655 57.3811 28.3139C57.3811 29.6015 58.4154 30.6457 59.6914 30.6457C60.1561 30.6457 60.5864 30.5056 60.9493 30.2673C60.5304 30.7977 60.2785 31.4693 60.2785 32.2011C60.2785 33.7103 61.3437 34.9678 62.7569 35.2501V35.2512L65.3509 35.7696C65.0723 36.0504 64.898 36.436 64.898 36.8647C64.898 37.7231 65.5879 38.4196 66.4382 38.4196C66.5405 38.4196 66.6418 38.4087 66.739 38.389V38.3895L72.598 37.2181V39.4545L67.161 40.5423C66.923 40.589 66.6798 40.6134 66.4382 40.6134C64.6024 40.6134 63.0725 39.2614 62.7764 37.4916L62.3338 37.4029C59.9983 36.9353 58.273 34.9258 58.1167 32.5519C56.4192 31.9079 55.2081 30.2507 55.2081 28.3139C55.2081 26.9095 55.8393 25.6074 56.941 24.7427Z" fill="white"/>
</svg>
