<svg width="16" height="13" viewBox="0 0 16 13" fill="none" xmlns="http://www.w3.org/2000/svg">
<path fill-rule="evenodd" clip-rule="evenodd" d="M16 1.54375C15.4112 1.79766 14.7716 1.98047 14.1117 2.05156C14.7919 1.64531 15.3096 1.00547 15.5533 0.24375C14.9239 0.619531 14.2132 0.89375 13.4721 1.03594C12.8731 0.396094 12.0203 0 11.0761 0C9.25888 0 7.79695 1.47266 7.79695 3.28047C7.79695 3.53437 7.82741 3.78828 7.87817 4.03203C5.15736 3.88984 2.73096 2.58984 1.11675 0.599219C0.832487 1.08672 0.670051 1.64531 0.670051 2.25469C0.670051 3.39219 1.24873 4.39766 2.13198 4.98672C1.59391 4.96641 1.08629 4.81406 0.649746 4.57031V4.61094C0.649746 6.20547 1.77665 7.52578 3.27919 7.83047C3.00508 7.90156 2.71066 7.94219 2.41624 7.94219C2.20305 7.94219 2 7.92188 1.79695 7.89141C2.2132 9.19141 3.42132 10.1359 4.86294 10.1664C3.73604 11.05 2.32487 11.568 0.791878 11.568C0.517766 11.568 0.263959 11.5578 0 11.5273C1.45178 12.4617 3.17766 13 5.03553 13C11.066 13 14.3655 8.00312 14.3655 3.66641C14.3655 3.52422 14.3655 3.38203 14.3553 3.23984C14.9949 2.77266 15.5533 2.19375 16 1.54375Z" fill="#5BABF4"/>
</svg>
